<?xml version="1.0" encoding="UTF-8"?>
<svg version="1.1" xmlns="http://www.w3.org/2000/svg" width="1600" height="1600">
<path d="M0 0 C4.98849785 0.0067721 9.97696534 -0.00398724 14.9654565 -0.01239584 C23.68928356 -0.02471504 32.41305679 -0.0259958 41.13688959 -0.01984541 C54.11024639 -0.01072369 67.08355375 -0.01881096 80.05690677 -0.03013665 C103.90657473 -0.05034184 127.75622141 -0.05187075 151.60589534 -0.04648603 C154.97956029 -0.04573022 158.35322525 -0.04500261 161.72689022 -0.04430406 C162.73218459 -0.04409542 162.73218459 -0.04409542 163.75778793 -0.04388257 C178.64253162 -0.04092414 193.52727234 -0.04394913 208.41201549 -0.04820034 C210.45212042 -0.0487825 212.49222535 -0.04935135 214.53233029 -0.04991598 C220.00188466 -0.05143108 225.47143904 -0.05295799 230.9409934 -0.05450898 C269.09976746 -0.065258 307.25853875 -0.0699756 345.41731371 -0.06203882 C346.13585813 -0.06189052 346.85440255 -0.06174221 347.59472104 -0.06158941 C355.60633312 -0.05993057 363.61794517 -0.05818098 371.62955722 -0.0563964 C372.3528177 -0.05623537 373.07607819 -0.05607435 373.82125565 -0.05590845 C379.68832273 -0.05460128 379.68832273 -0.05460128 382.5959608 -0.05394726 C428.84750391 -0.0435584 475.09900895 -0.05132036 521.35054697 -0.07494871 C533.00474014 -0.08089269 544.65893334 -0.0867845 556.3131267 -0.09235804 C557.38969066 -0.09287369 557.38969066 -0.09287369 558.48800339 -0.09339976 C580.62785057 -0.10393652 602.76769457 -0.10952146 624.90754427 -0.10991518 C625.95102674 -0.10993435 625.95102674 -0.10993435 627.01558967 -0.10995391 C642.29084654 -0.11018227 657.56610314 -0.10917555 672.84135986 -0.10704486 C678.30778103 -0.10629018 683.77420221 -0.10561195 689.2406234 -0.10496471 C690.60038623 -0.10480202 691.96014907 -0.10463435 693.31991191 -0.10446169 C714.9327254 -0.10174719 736.5455157 -0.1102661 758.1583242 -0.1243158 C780.54757481 -0.13876349 802.93678155 -0.13821986 825.3260307 -0.12094108 C838.21533076 -0.11140232 851.10451798 -0.11276325 863.99381042 -0.13017577 C872.62165997 -0.14071141 881.24942409 -0.13650035 889.87726531 -0.12069573 C894.78096798 -0.11211394 899.68445055 -0.10951503 904.58814141 -0.12496505 C931.65836215 -0.20439749 957.66882825 1.23304212 984.07955088 7.82910402 C985.33106943 8.13203371 986.58258798 8.4349634 987.87203134 8.74707277 C996.80909471 10.94381482 1005.56767968 13.38900563 1014.26705088 16.39160402 C1015.79672747 16.89633332 1017.32669324 17.40018676 1018.85689463 17.90332277 C1060.16406874 31.6942908 1096.95079101 53.59762833 1130.26705088 81.39160402 C1130.77784189 81.81071047 1131.28863291 82.22981691 1131.81490244 82.66162356 C1145.34657685 93.77721954 1158.51752018 105.95103489 1169.24751963 119.83691652 C1170.97383903 122.02069388 1172.75927675 124.08489059 1174.61080088 126.16113527 C1178.20569794 130.24531258 1181.42449799 134.52506355 1184.57955088 138.95410402 C1185.14077646 139.73857912 1185.70200205 140.52305422 1186.28023447 141.33130129 C1199.44525808 159.82110342 1210.88328114 178.77300449 1220.35054697 199.42968996 C1221.48164898 201.85098345 1222.70917715 204.21487073 1223.95455088 206.57910402 C1227.33046191 213.26131967 1229.75883929 220.35043863 1232.26705088 227.39160402 C1232.67826181 228.52984621 1233.08947275 229.6680884 1233.51314463 230.84082277 C1239.92319887 249.27235579 1244.70820748 268.23889395 1247.79672868 287.49821046 C1248.08374885 289.26394109 1248.37782829 291.02856654 1248.68434515 292.7910173 C1251.96365744 311.80522516 1251.69776725 330.83037361 1251.6586549 350.05467473 C1251.65188256 355.03290657 1251.66264225 360.01110799 1251.67105074 364.98933311 C1251.68336972 373.69513544 1251.68465079 382.40088383 1251.67850031 391.10669191 C1251.66937845 404.05324624 1251.67746597 416.99975102 1251.68879155 429.94630156 C1251.70899656 453.74672071 1251.71052568 477.54711855 1251.70514093 501.34754368 C1251.70438512 504.71422417 1251.70365751 508.08090468 1251.70295895 511.44758518 C1251.70275032 512.45079881 1251.70275032 512.45079881 1251.70253747 513.47427938 C1251.69957902 528.3283201 1251.70260405 543.18235784 1251.70685524 558.03639803 C1251.7074374 560.07230446 1251.70800625 562.10821089 1251.70857088 564.14411732 C1251.71008598 569.6024178 1251.71161289 575.06071828 1251.71316388 580.51901875 C1251.72391288 618.59920112 1251.72863053 656.67938073 1251.72069372 694.759564 C1251.72047126 695.83515704 1251.72047126 695.83515704 1251.72024431 696.93247924 C1251.71858547 704.9275599 1251.71683588 712.92264055 1251.7150513 720.91772118 C1251.71489027 721.63948904 1251.71472925 722.36125689 1251.71456335 723.10489649 C1251.71325618 728.95984657 1251.71325618 728.95984657 1251.71260216 731.86149258 C1251.70221331 778.01754024 1251.70997525 824.17354975 1251.73360361 870.32959231 C1251.73954759 881.95972237 1251.7454394 893.58985245 1251.75101293 905.2199827 C1251.7513567 905.9362105 1251.75170048 906.6524383 1251.75205466 907.39036998 C1251.76259146 929.48458432 1251.76817636 951.57879548 1251.76857008 973.67301233 C1251.76858286 974.36723545 1251.76859564 975.06145856 1251.76860881 975.77671874 C1251.76883717 991.02054863 1251.76783044 1006.26437823 1251.76569976 1021.50820797 C1251.76494508 1026.9633851 1251.76426685 1032.41856224 1251.76361961 1037.87373939 C1251.76345692 1039.23070481 1251.76328925 1040.58767024 1251.76311659 1041.94463566 C1251.76048608 1062.84563421 1251.76806955 1083.7466107 1251.78166689 1104.64760454 C1251.79660115 1127.65783427 1251.79739053 1150.66801556 1251.77959598 1173.67824427 C1251.77005736 1186.54088299 1251.77141785 1199.40340864 1251.78883067 1212.26603973 C1251.79936656 1220.87611759 1251.79515491 1229.48610985 1251.77935063 1238.09617936 C1251.7707691 1242.98973177 1251.76816926 1247.88306363 1251.78361995 1252.77660421 C1251.89687219 1291.30980994 1247.25806763 1328.17497422 1234.91255869 1364.84619387 C1234.26089664 1366.78491312 1233.61907764 1368.72670997 1232.97798838 1370.66894777 C1230.73263622 1377.41636441 1228.27178599 1383.94711024 1225.26705088 1390.39160402 C1224.73783437 1391.62612181 1224.21421004 1392.8630548 1223.69673838 1394.10254152 C1212.5653792 1420.33674984 1197.72275584 1444.88961345 1180.26705088 1467.39160402 C1179.5993165 1468.25398684 1178.93158213 1469.11636965 1178.24361338 1470.00488527 C1174.2287543 1475.10677141 1170.02105932 1479.98552297 1165.63814463 1484.77441652 C1163.71856577 1486.89322679 1161.84273237 1489.03698327 1159.97408213 1491.20019777 C1156.30620792 1495.39935592 1152.46116975 1499.38979329 1148.51705088 1503.32910402 C1147.82329355 1504.02205568 1147.12953623 1504.71500734 1146.41475595 1505.42895754 C1132.29497666 1519.38229543 1132.29497666 1519.38229543 1126.26705088 1521.39160402 C1125.93705088 1522.38160402 1125.60705088 1523.37160402 1125.26705088 1524.39160402 C1123.25629548 1525.99066173 1121.261148 1527.45003943 1119.14205088 1528.89160402 C1117.8468483 1529.79000182 1116.55260694 1530.68978668 1115.25923838 1531.59082277 C1114.25908701 1532.28570803 1114.25908701 1532.28570803 1113.23873056 1532.99463137 C1111.38714654 1534.30651395 1109.57635946 1535.65656044 1107.77486338 1537.03613527 C1097.17533297 1545.13105356 1085.87557874 1551.84712869 1074.26705088 1558.39160402 C1073.46783213 1558.84422609 1072.66861338 1559.29684816 1071.84517588 1559.76318606 C1039.65700076 1577.82113549 1003.46902251 1590.57568705 967.0267566 1596.45172318 C963.60832553 1597.00314224 960.19895271 1597.58391057 956.7925839 1598.20488651 C938.86703407 1601.25424596 920.80010148 1600.82285203 902.68117339 1600.78940941 C897.69642054 1600.78355234 892.7117012 1600.79518309 887.72695775 1600.80447109 C879.00804109 1600.81832808 870.2891763 1600.82113313 861.57025064 1600.81651171 C848.60396085 1600.80965697 835.63772326 1600.8199661 822.67144073 1600.83346927 C798.8336718 1600.85765712 774.99592137 1600.86301299 751.15814223 1600.86115875 C747.78553873 1600.86089909 744.41293523 1600.86066043 741.04033173 1600.86044367 C740.03534803 1600.86037761 740.03534803 1600.86037761 739.01006163 1600.86031022 C724.13068401 1600.85944505 709.25130983 1600.86424644 694.37193356 1600.87012558 C690.96950502 1600.87146658 687.56707647 1600.8727665 684.16464792 1600.87407123 C682.79899099 1600.87459576 681.43333406 1600.87512035 680.06767712 1600.875645 C679.39071859 1600.87590478 678.71376006 1600.87616456 678.01628763 1600.87643221 C676.6469195 1600.8769584 675.27755137 1600.87748608 673.90818325 1600.87801523 C635.07417825 1600.89300309 596.24017598 1600.90178549 557.40616812 1600.89705904 C556.68774077 1600.89697318 555.96931342 1600.89688731 555.22911555 1600.89679884 C547.21882348 1600.89583954 539.20853142 1600.89480133 531.19823936 1600.89373996 C529.00605018 1600.89345044 526.81386099 1600.89316096 524.6216718 1600.89287155 C523.15900478 1600.89267755 521.69633775 1600.89248205 520.23367073 1600.89228506 C474.00250726 1600.88607214 427.77139619 1600.90091917 381.54024423 1600.93359621 C369.89393387 1600.94182036 358.24762347 1600.94997073 346.60131277 1600.95769747 C345.88407119 1600.95817366 345.1668296 1600.95864986 344.42785343 1600.95914049 C322.29749241 1600.97374249 300.16713574 1600.98217415 278.03677 1600.98426302 C277.34126204 1600.98432934 276.64575408 1600.98439565 275.92917012 1600.98446398 C260.65598913 1600.9858585 245.38280845 1600.98574629 230.10962747 1600.98425389 C224.64366138 1600.98373185 219.17769528 1600.98331465 213.71172917 1600.98294572 C212.35209318 1600.9828525 210.99245718 1600.98275336 209.63282118 1600.98264828 C188.03225435 1600.98102796 166.43172672 1600.99379875 144.83117004 1601.01380605 C122.4479554 1601.03441644 100.06480688 1601.03642467 77.68158976 1601.0176505 C64.7997764 1601.00736351 51.91814172 1601.01069383 39.03634471 1601.03418136 C30.40834591 1601.04851066 21.78047804 1601.04433021 13.15248786 1601.02573559 C8.25192648 1601.01567571 3.35171043 1601.01300565 -1.54882815 1601.03305628 C-30.96696247 1601.14542697 -59.11641654 1598.67348955 -87.73294912 1591.39160402 C-88.66107412 1591.15957277 -89.58919912 1590.92754152 -90.54544912 1590.68847902 C-93.28974048 1589.96893922 -96.00936746 1589.18612657 -98.73294912 1588.39160402 C-99.42018057 1588.19872805 -100.10741202 1588.00585207 -100.81546866 1587.80713137 C-117.00088064 1583.26081992 -132.42021979 1577.3074525 -147.73294912 1570.39160402 C-148.50936758 1570.04210695 -149.28578604 1569.69260988 -150.08573233 1569.33252199 C-174.57826271 1558.21327444 -197.13897655 1543.95077573 -218.26419912 1527.31738527 C-220.77256951 1525.31146126 -220.77256951 1525.31146126 -223.73294912 1523.39160402 C-223.73294912 1522.73160402 -223.73294912 1522.07160402 -223.73294912 1521.39160402 C-224.56560293 1521.01962893 -224.56560293 1521.01962893 -225.41507803 1520.64013918 C-234.55897581 1515.71472384 -242.11576305 1507.3232606 -249.35794912 1500.01660402 C-250.23451162 1499.1477759 -251.11107412 1498.27894777 -252.01419912 1497.38379152 C-257.23178248 1492.15072572 -262.03815023 1486.73504426 -266.65360342 1480.96509035 C-268.51325397 1478.66350805 -270.42850512 1476.44400897 -272.40091787 1474.23926027 C-275.88920187 1470.28921782 -278.98963089 1466.11883961 -282.04544912 1461.82910402 C-282.60667471 1461.04462893 -283.1679003 1460.26015383 -283.74613272 1459.45190676 C-298.23407889 1439.10410746 -310.32036288 1418.12001005 -320.73294912 1395.39160402 C-321.0407128 1394.7285425 -321.34847647 1394.06548098 -321.66556631 1393.38232668 C-333.35143754 1368.08643293 -340.62982995 1340.56796936 -345.26285867 1313.16250003 C-345.55282179 1311.4533446 -345.84758879 1309.74498646 -346.15021765 1308.03802815 C-349.4443277 1289.01486282 -349.1636861 1269.96296133 -349.12455315 1250.72853331 C-349.11778081 1245.75030148 -349.1285405 1240.77210006 -349.13694899 1235.79387494 C-349.14926797 1227.08807261 -349.15054904 1218.38232421 -349.14439856 1209.67651613 C-349.1352767 1196.72996181 -349.14336422 1183.78345703 -349.1546898 1170.83690649 C-349.17489481 1147.03648733 -349.17642393 1123.2360895 -349.17103918 1099.43566437 C-349.17028337 1096.06898387 -349.16955576 1092.70230337 -349.1688572 1089.33562286 C-349.16871811 1088.66681378 -349.16857902 1087.9980047 -349.16843571 1087.30892867 C-349.16547727 1072.45488795 -349.1685023 1057.6008502 -349.17275349 1042.74681002 C-349.17333565 1040.71090359 -349.1739045 1038.67499716 -349.17446912 1036.63909073 C-349.17598423 1031.18079025 -349.17751114 1025.72248977 -349.17906213 1020.2641893 C-349.18981113 982.18400693 -349.19452877 944.10382732 -349.18659197 906.02364405 C-349.18644366 905.30658202 -349.18629536 904.58951999 -349.18614256 903.85072881 C-349.18448372 895.85564814 -349.18273413 887.8605675 -349.18094955 879.86548686 C-349.18078852 879.14371901 -349.1806275 878.42195116 -349.18046159 877.67831156 C-349.17915443 871.82336146 -349.17915443 871.82336146 -349.17850041 868.92171547 C-349.16811156 822.76566781 -349.1758735 776.60965829 -349.19950186 730.45361574 C-349.20544584 718.82348568 -349.21133765 707.1933556 -349.21691118 695.56322535 C-349.21725495 694.84699755 -349.21759872 694.13076974 -349.21795291 693.39283807 C-349.22848971 671.29862373 -349.23407461 649.20441257 -349.23446833 627.11019571 C-349.23448111 626.4159726 -349.23449389 625.72174949 -349.23450706 625.00648931 C-349.23473541 609.76265942 -349.23372869 594.51882981 -349.23159801 579.27500008 C-349.23084333 573.81982295 -349.2301651 568.36464581 -349.22951786 562.90946866 C-349.22935516 561.55250324 -349.2291875 560.19553781 -349.22901484 558.83857239 C-349.22638433 537.93757384 -349.2339678 517.03659734 -349.24756514 496.13560351 C-349.2624994 473.12537378 -349.26328878 450.11519249 -349.24549423 427.10496378 C-349.23595561 414.24232506 -349.2373161 401.37979941 -349.25472891 388.51716832 C-349.26526481 379.90709046 -349.26105316 371.2970982 -349.24524888 362.68702869 C-349.23666735 357.79347628 -349.23406751 352.90014442 -349.2495182 348.00660384 C-349.33225142 319.86733882 -347.50213967 292.83884574 -340.73294912 265.39160402 C-340.49205557 264.41159426 -340.25116202 263.43158449 -340.00296866 262.42187746 C-336.37263293 247.87830347 -332.05643148 233.74914072 -326.64994131 219.76758059 C-325.81894757 217.61443066 -325.01083367 215.45435995 -324.20951162 213.29004152 C-321.03375858 204.95588299 -317.13799013 197.19269961 -312.88138662 189.37597902 C-311.10518031 186.11318199 -309.46006051 182.80649895 -307.85794912 179.45410402 C-301.50276688 166.65596077 -293.56132131 154.64164869 -285.05716787 143.18066652 C-283.63513377 141.25945231 -282.23102444 139.3257935 -280.82669912 137.39160402 C-275.31777744 129.86256593 -269.58896533 122.75636378 -263.17435537 115.98144777 C-261.16590158 113.85087999 -259.2482484 111.68809407 -257.35794912 109.45410402 C-254.02838215 105.61981052 -250.4882423 102.00264612 -246.92044912 98.39160402 C-246.34439932 97.80258303 -245.76834952 97.21356203 -245.17484366 96.60669191 C-243.73312001 95.16176634 -242.23699504 93.77153985 -240.73294912 92.39160402 C-240.07294912 92.39160402 -239.41294912 92.39160402 -238.73294912 92.39160402 C-238.23794912 90.90660402 -238.23794912 90.90660402 -237.73294912 89.39160402 C-236.00068638 87.78347737 -234.19844823 86.24963086 -232.35794912 84.76660402 C-231.38083975 83.9699634 -230.40373037 83.17332277 -229.39701162 82.35254152 C-226.73294912 80.39160402 -226.73294912 80.39160402 -223.73294912 79.39160402 C-223.23794912 77.90660402 -223.23794912 77.90660402 -222.73294912 76.39160402 C-220.53832434 74.60680092 -218.35212385 72.95664179 -216.04544912 71.32910402 C-215.37062491 70.84522219 -214.69580069 70.36134035 -214.00052725 69.86279543 C-212.59782972 68.85792178 -211.19301442 67.85599822 -209.78617178 66.85693606 C-207.89569979 65.50775497 -206.02072267 64.14031089 -204.15091787 62.76269777 C-196.5110351 57.16236272 -188.63692661 52.15245295 -180.44681631 47.39697512 C-178.92808806 46.50607441 -177.42674289 45.58568569 -175.92826162 44.66113527 C-165.64496221 38.38683229 -154.65076469 33.44652421 -143.73294912 28.39160402 C-143.05973623 28.07803957 -142.38652334 27.76447512 -141.69291006 27.44140871 C-115.82374673 15.49623949 -87.70732822 8.33071475 -59.73294912 3.39160402 C-58.97008745 3.25390541 -58.20722577 3.1162068 -57.42124707 2.9743355 C-38.3680624 -0.33890688 -19.2660163 -0.03911476 0 0 Z " fill="#0D101E" transform="translate(348.73294912464917,-0.3916040239855647)"/>
<path d="M0 0 C0.97018066 0.00612305 1.94036133 0.01224609 2.93994141 0.01855469 C9.98582752 0.17257608 15.82955153 1.13697362 22.125 4.4375 C23.38583469 5.06817674 24.64765374 5.69688735 25.91015625 6.32421875 C28.66253891 7.70233752 31.41210618 9.08592115 34.16015625 10.47265625 C34.82466797 10.80716797 35.48917969 11.14167969 36.17382812 11.48632812 C37.52096227 12.1644684 38.86731279 12.84416752 40.21289062 13.52539062 C44.45710355 15.65780859 48.74876473 17.5856298 53.125 19.4375 C55.27529349 20.42787297 57.42088634 21.42849474 59.5625 22.4375 C64.32022528 24.67385864 69.0895778 26.88204413 73.875 29.05859375 C84.07469488 33.69917855 94.22882064 38.37083355 104.19921875 43.48828125 C109.76339817 46.29992735 115.4594013 48.83879493 121.125 51.4375 C134.82429311 57.76449889 148.51017452 64.11499942 162.12011719 70.63232422 C169.34482343 74.08431264 176.60753408 77.45163068 183.875 80.8125 C193.8967207 85.44831019 203.86896249 90.17554628 213.8112793 94.97900391 C221.39810507 98.63444706 229.03202947 102.17837391 236.6875 105.6875 C244.22384425 109.14239318 251.69834917 112.668732 259.08349609 116.43505859 C265.93214403 119.89937596 272.92550734 123.04406997 279.91040039 126.22192383 C287.58320679 129.71693039 295.20780267 133.30280401 302.81201172 136.94433594 C307.83864201 139.35118326 312.87841407 141.72474202 317.9375 144.0625 C323.80591781 146.78482949 329.58164758 149.66213065 335.34570312 152.59814453 C339.31072092 154.59719055 343.28899737 156.34027289 347.4375 157.9375 C359.57626393 162.86887285 369.35060043 171.68247231 375.125 183.4375 C378.1413276 191.14739565 379.27669243 198.34784242 379.25084114 206.634161 C379.25229458 207.44741828 379.25374802 208.26067557 379.25524551 209.09857702 C379.25890059 211.8290323 379.25542133 214.55943158 379.25198364 217.28988647 C379.25313566 219.26514293 379.25472372 221.24039918 379.25671089 223.21565497 C379.26089324 228.64801361 379.25881841 234.08035472 379.25572467 239.51271343 C379.25346633 245.36966764 379.25695237 251.22661879 379.25970459 257.08357239 C379.26415677 268.55970027 379.26318821 280.03582162 379.26029195 291.51194976 C379.25803554 300.83811247 379.25769997 310.16427354 379.25881577 319.49043655 C379.25893034 320.48416656 379.25893034 320.48416656 379.25904724 321.49797192 C379.25935857 324.18720188 379.25967697 326.87643183 379.260007 329.56566178 C379.26306667 354.79812123 379.26029159 380.03057712 379.2549101 405.26303601 C379.25016553 427.67959102 379.25058813 450.09614035 379.25537109 472.51269531 C379.26072639 497.69580727 379.26284859 522.87891608 379.25975883 548.06202853 C379.25943811 550.74699632 379.25912527 553.43196412 379.25881577 556.11693192 C379.25873669 556.77804261 379.25865761 557.4391533 379.25857614 558.12029765 C379.25743883 568.10226763 379.25877487 578.08423452 379.26129532 588.06620407 C379.26409861 599.41810467 379.26334389 610.76999835 379.25801457 622.12189816 C379.25538458 627.9151971 379.25436066 633.70848451 379.25766373 639.50178337 C379.26064112 644.8040491 379.2590097 650.10629259 379.25368617 655.4085563 C379.25256816 657.32775267 379.25313957 659.24695092 379.25556196 661.16614608 C379.25860115 663.77384304 379.25548497 666.38146375 379.25084114 668.98915672 C379.25318231 669.734907 379.25552347 670.48065727 379.25793558 671.24900603 C379.24081422 676.05709446 378.79994823 680.67578602 378.125 685.4375 C377.465 685.4375 376.805 685.4375 376.125 685.4375 C375.93164062 686.02917969 375.73828125 686.62085938 375.5390625 687.23046875 C375.00116802 688.86279209 374.45661436 690.49293251 373.90625 692.12109375 C373.33843305 693.80467101 372.78871777 695.494387 372.25 697.1875 C370.70252302 700.28245395 368.68302475 702.10191219 366.125 704.4375 C365.45339844 705.05496094 364.78179688 705.67242188 364.08984375 706.30859375 C358.40367203 711.4375 358.40367203 711.4375 356.125 711.4375 C356.125 712.0975 356.125 712.7575 356.125 713.4375 C355.1659375 713.623125 355.1659375 713.623125 354.1875 713.8125 C353.506875 714.01875 352.82625 714.225 352.125 714.4375 C351.795 715.0975 351.465 715.7575 351.125 716.4375 C349.375 717.3671875 349.375 717.3671875 347.125 718.3125 C345.90490234 718.83457031 345.90490234 718.83457031 344.66015625 719.3671875 C343.82355469 719.72039063 342.98695313 720.07359375 342.125 720.4375 C337.08984006 722.62817667 332.11938079 724.88485395 327.2421875 727.41015625 C324.91123467 728.54122746 322.53904553 729.55676046 320.15478516 730.56958008 C309.67373564 735.05119315 299.22796028 739.60809573 289.3046875 745.234375 C286.32550923 746.87879598 283.26753306 748.13305232 280.125 749.4375 C278.17554283 750.39471849 276.24149142 751.37724582 274.3125 752.375 C271.92286623 753.53567926 269.48830683 754.56938509 267.04345703 755.60742188 C263.68269545 757.06155643 260.37399964 758.62511809 257.0625 760.1875 C256.32660645 760.53385498 255.59071289 760.88020996 254.83251953 761.23706055 C248.93016637 764.02799224 243.09018468 766.92982113 237.2734375 769.89453125 C233.93608837 771.53008076 230.54447132 772.9828298 227.125 774.4375 C225.78409241 775.08879797 224.44907669 775.75263275 223.125 776.4375 C220.18853669 777.95636033 217.19311844 779.27967115 214.15039062 780.57177734 C198.52679314 787.24039288 198.52679314 787.24039288 183.51171875 795.1484375 C181.10291013 796.4494307 178.64516497 797.53514881 176.12182617 798.59375 C165.76916898 802.96821916 155.51901615 807.64409262 145.50390625 812.7421875 C131.21997117 819.90892487 116.69085374 826.59146507 102.20230103 833.33200073 C92.68656669 837.75955404 83.19782544 842.23994458 73.74414062 846.79882812 C68.47367383 849.33586652 63.17096403 851.78613905 57.84057617 854.19458008 C55.21151002 855.39790434 52.60330275 856.63655776 50 857.89453125 C49.19175781 858.28447266 48.38351562 858.67441406 47.55078125 859.07617188 C45.90061098 859.87468422 44.25223412 860.67691106 42.60546875 861.48242188 C41.80753906 861.86591797 41.00960938 862.24941406 40.1875 862.64453125 C39.47722656 862.9897583 38.76695312 863.33498535 38.03515625 863.69067383 C36.125 864.4375 36.125 864.4375 33.125 864.4375 C33.125 865.0975 33.125 865.7575 33.125 866.4375 C30.60659568 867.56821214 28.08551069 868.69214988 25.5625 869.8125 C24.50579102 870.28816406 24.50579102 870.28816406 23.42773438 870.7734375 C15.64624372 874.21594028 8.81608233 875.80523886 0.3125 875.75 C-0.57679199 875.74508545 -1.46608398 875.7401709 -2.38232422 875.73510742 C-11.73776377 875.56770875 -18.69733056 873.25033896 -26.93359375 868.9453125 C-30.57974969 867.07623389 -34.28544745 865.35303819 -38 863.625 C-43.7378715 860.9477922 -49.41712032 858.17925134 -55.0625 855.3125 C-61.10405991 852.25037995 -67.23596448 849.53391175 -73.484375 846.9140625 C-76.80662308 845.46727705 -80.02193503 843.89522152 -83.25 842.25 C-90.84465749 838.38362891 -98.58817699 834.86350176 -106.34912109 831.3449707 C-111.26109896 829.113823 -116.136461 826.84483173 -120.94824219 824.4050293 C-124.53890392 822.60196386 -128.17867211 820.90141257 -131.8125 819.1875 C-132.63588867 818.79836426 -133.45927734 818.40922852 -134.30761719 818.00830078 C-136.82955788 816.81692788 -139.35217357 815.62699599 -141.875 814.4375 C-142.63119629 814.08075195 -143.38739258 813.72400391 -144.16650391 813.35644531 C-151.4359489 809.92773621 -158.71102761 806.51203904 -166 803.125 C-172.39650957 800.14899093 -178.76216915 797.10975463 -185.125 794.0625 C-186.11089111 793.59054199 -187.09678223 793.11858398 -188.11254883 792.63232422 C-196.70028505 788.52119637 -196.70028505 788.52119637 -199.47314453 787.19287109 C-207.95351904 783.13470572 -216.4530182 779.15249786 -225.0625 775.375 C-231.44731537 772.57212971 -237.70430246 769.58481939 -243.92236328 766.43066406 C-249.2485826 763.73281534 -254.62891233 761.16972522 -260.03857422 758.64404297 C-265.09023161 756.28342357 -270.12129639 753.88278711 -275.14599609 751.46533203 C-284.73481999 746.85312861 -294.37075669 742.37264931 -304.07446289 738.00756836 C-310.28091799 735.20147928 -316.37800917 732.22712737 -322.44506836 729.13305664 C-327.29462354 726.67765759 -332.22838383 724.55484897 -337.265625 722.51953125 C-340.90377965 721.01089527 -344.38107883 719.24943019 -347.875 717.4375 C-349.37396481 716.68543317 -350.87395179 715.9353999 -352.375 715.1875 C-353.53 714.61 -354.685 714.0325 -355.875 713.4375 C-355.875 712.7775 -355.875 712.1175 -355.875 711.4375 C-356.596875 711.210625 -357.31875 710.98375 -358.0625 710.75 C-361.46068303 709.16418125 -363.32730999 707.17626676 -365.875 704.4375 C-366.803125 703.57125 -367.73125 702.705 -368.6875 701.8125 C-370.875 699.4375 -370.875 699.4375 -370.875 696.4375 C-371.535 696.4375 -372.195 696.4375 -372.875 696.4375 C-373.16503906 695.53257812 -373.16503906 695.53257812 -373.4609375 694.609375 C-373.85152344 693.41054687 -373.85152344 693.41054687 -374.25 692.1875 C-374.50523437 691.39859375 -374.76046875 690.6096875 -375.0234375 689.796875 C-375.79158218 687.46852377 -375.79158218 687.46852377 -376.9140625 685.578125 C-379.3406929 680.17246054 -379.02135217 673.94847898 -379.01201439 668.12172699 C-379.01466622 667.30772466 -379.01731804 666.49372233 -379.02005023 665.65505326 C-379.0277084 662.92802342 -379.02830106 660.20103888 -379.02890015 657.47399902 C-379.03291705 655.49874298 -379.03735565 653.52348775 -379.0421797 651.54823351 C-379.05412536 646.12025333 -379.05978898 640.69228203 -379.06436086 635.26429129 C-379.07032445 629.40994276 -379.08193229 623.55560481 -379.09265137 617.70126343 C-379.11715623 603.5638339 -379.13179912 589.42640059 -379.14471143 575.2889564 C-379.14838384 571.29526606 -379.1523976 567.30157609 -379.1564641 563.30788612 C-379.1816994 538.50095339 -379.20376568 513.69402008 -379.21619225 488.88707733 C-379.21911338 483.14314268 -379.22208095 477.39920804 -379.22509766 471.65527344 C-379.22546857 470.94169053 -379.22583947 470.22810763 -379.22622162 469.492901 C-379.23837362 446.36362321 -379.26931423 423.23442158 -379.31101918 400.10517954 C-379.35384307 376.31187035 -379.38043775 352.51860137 -379.38566696 328.7252526 C-379.38640735 325.36198578 -379.38731802 321.99871902 -379.38832474 318.63545227 C-379.38851535 317.97357689 -379.38870597 317.3117015 -379.38890236 316.62976929 C-379.39219305 306.65431052 -379.40955639 296.67896297 -379.43421555 286.70353699 C-379.46223663 275.34962984 -379.47320618 263.99586754 -379.46202008 252.64192849 C-379.45683903 246.85169388 -379.45968487 241.06176253 -379.48448563 235.27157211 C-379.50702947 229.96388331 -379.50619808 224.65671472 -379.48728175 219.34901649 C-379.484489 217.43577456 -379.49003963 215.52249697 -379.50509469 213.60931224 C-379.62910292 196.81450381 -377.20964051 182.0004157 -364.9296875 169.44921875 C-358.22892374 163.31342134 -350.69631424 159.14636914 -342.375 155.625 C-335.18801295 152.50982131 -328.17602887 149.16429034 -321.20703125 145.58984375 C-315.50423071 142.71017637 -309.68611278 140.06757874 -303.89260864 137.37686157 C-300.6283638 135.85708905 -297.37090717 134.32295796 -294.11328125 132.7890625 C-269.92494337 121.41145409 -269.92494337 121.41145409 -258.875 116.5 C-252.52025635 113.67487735 -246.28433105 110.685425 -240.08984375 107.52563477 C-234.42672102 104.65945601 -228.66349807 102.03951035 -222.875 99.4375 C-216.47410792 96.55976969 -210.12623776 93.62796575 -203.875 90.4375 C-196.69020889 86.77057342 -189.36389987 83.45567024 -182.0078125 80.1484375 C-176.56706925 77.69181382 -171.19194862 75.15112938 -165.875 72.4375 C-158.69607182 68.7735657 -151.37635881 65.45987197 -144.02539062 62.15722656 C-137.74712786 59.32392566 -131.57774743 56.3313579 -125.44287109 53.2019043 C-120.17444463 50.53499331 -114.8156116 48.20095216 -109.3515625 45.95703125 C-106.61515943 44.76100789 -103.97465878 43.50247065 -101.3125 42.15625 C-95.03298212 38.98340988 -88.64124897 36.06437669 -82.25 33.125 C-73.78611228 29.22038767 -65.36157108 25.26146425 -57.04956055 21.04150391 C-52.23022638 18.59765946 -47.35253249 16.31344797 -42.43359375 14.078125 C-39.66204117 12.80035103 -36.90870787 11.49766629 -34.16015625 10.171875 C-33.32846924 9.77218506 -32.49678223 9.37249512 -31.63989258 8.96069336 C-30.01136913 8.17670658 -28.38476688 7.38871121 -26.76049805 6.59594727 C-17.71271953 2.25251576 -10.11312578 -0.10861143 0 0 Z " fill="#B092FD" transform="translate(799.875,421.5625)"/>
<path d="M0 0 C4.98849785 0.0067721 9.97696534 -0.00398724 14.9654565 -0.01239584 C23.68928356 -0.02471504 32.41305679 -0.0259958 41.13688959 -0.01984541 C54.11024639 -0.01072369 67.08355375 -0.01881096 80.05690677 -0.03013665 C103.90657473 -0.05034184 127.75622141 -0.05187075 151.60589534 -0.04648603 C154.97956029 -0.04573022 158.35322525 -0.04500261 161.72689022 -0.04430406 C162.73218459 -0.04409542 162.73218459 -0.04409542 163.75778793 -0.04388257 C178.64253162 -0.04092414 193.52727234 -0.04394913 208.41201549 -0.04820034 C210.45212042 -0.0487825 212.49222535 -0.04935135 214.53233029 -0.04991598 C220.00188466 -0.05143108 225.47143904 -0.05295799 230.9409934 -0.05450898 C269.09976746 -0.065258 307.25853875 -0.0699756 345.41731371 -0.06203882 C346.13585813 -0.06189052 346.85440255 -0.06174221 347.59472104 -0.06158941 C355.60633312 -0.05993057 363.61794517 -0.05818098 371.62955722 -0.0563964 C372.3528177 -0.05623537 373.07607819 -0.05607435 373.82125565 -0.05590845 C379.68832273 -0.05460128 379.68832273 -0.05460128 382.5959608 -0.05394726 C428.84750391 -0.0435584 475.09900895 -0.05132036 521.35054697 -0.07494871 C533.00474014 -0.08089269 544.65893334 -0.0867845 556.3131267 -0.09235804 C557.38969066 -0.09287369 557.38969066 -0.09287369 558.48800339 -0.09339976 C580.62785057 -0.10393652 602.76769457 -0.10952146 624.90754427 -0.10991518 C625.95102674 -0.10993435 625.95102674 -0.10993435 627.01558967 -0.10995391 C642.29084654 -0.11018227 657.56610314 -0.10917555 672.84135986 -0.10704486 C678.30778103 -0.10629018 683.77420221 -0.10561195 689.2406234 -0.10496471 C690.60038623 -0.10480202 691.96014907 -0.10463435 693.31991191 -0.10446169 C714.9327254 -0.10174719 736.5455157 -0.1102661 758.1583242 -0.1243158 C780.54757481 -0.13876349 802.93678155 -0.13821986 825.3260307 -0.12094108 C838.21533076 -0.11140232 851.10451798 -0.11276325 863.99381042 -0.13017577 C872.62165997 -0.14071141 881.24942409 -0.13650035 889.87726531 -0.12069573 C894.78096798 -0.11211394 899.68445055 -0.10951503 904.58814141 -0.12496505 C931.65836215 -0.20439749 957.66882825 1.23304212 984.07955088 7.82910402 C985.33106943 8.13203371 986.58258798 8.4349634 987.87203134 8.74707277 C996.80909471 10.94381482 1005.56767968 13.38900563 1014.26705088 16.39160402 C1015.79672747 16.89633332 1017.32669324 17.40018676 1018.85689463 17.90332277 C1060.16406874 31.6942908 1096.95079101 53.59762833 1130.26705088 81.39160402 C1130.77784189 81.81071047 1131.28863291 82.22981691 1131.81490244 82.66162356 C1145.34657685 93.77721954 1158.51752018 105.95103489 1169.24751963 119.83691652 C1170.97383903 122.02069388 1172.75927675 124.08489059 1174.61080088 126.16113527 C1178.20569794 130.24531258 1181.42449799 134.52506355 1184.57955088 138.95410402 C1185.14077646 139.73857912 1185.70200205 140.52305422 1186.28023447 141.33130129 C1199.44525808 159.82110342 1210.88328114 178.77300449 1220.35054697 199.42968996 C1221.48164898 201.85098345 1222.70917715 204.21487073 1223.95455088 206.57910402 C1227.33046191 213.26131967 1229.75883929 220.35043863 1232.26705088 227.39160402 C1232.67826181 228.52984621 1233.08947275 229.6680884 1233.51314463 230.84082277 C1239.92319887 249.27235579 1244.70820748 268.23889395 1247.79672868 287.49821046 C1248.08374885 289.26394109 1248.37782829 291.02856654 1248.68434515 292.7910173 C1251.96365744 311.80522516 1251.69776725 330.83037361 1251.6586549 350.05467473 C1251.65188256 355.03290657 1251.66264225 360.01110799 1251.67105074 364.98933311 C1251.68336972 373.69513544 1251.68465079 382.40088383 1251.67850031 391.10669191 C1251.66937845 404.05324624 1251.67746597 416.99975102 1251.68879155 429.94630156 C1251.70899656 453.74672071 1251.71052568 477.54711855 1251.70514093 501.34754368 C1251.70438512 504.71422417 1251.70365751 508.08090468 1251.70295895 511.44758518 C1251.70275032 512.45079881 1251.70275032 512.45079881 1251.70253747 513.47427938 C1251.69957902 528.3283201 1251.70260405 543.18235784 1251.70685524 558.03639803 C1251.7074374 560.07230446 1251.70800625 562.10821089 1251.70857088 564.14411732 C1251.71008598 569.6024178 1251.71161289 575.06071828 1251.71316388 580.51901875 C1251.72391288 618.59920112 1251.72863053 656.67938073 1251.72069372 694.759564 C1251.72047126 695.83515704 1251.72047126 695.83515704 1251.72024431 696.93247924 C1251.71858547 704.9275599 1251.71683588 712.92264055 1251.7150513 720.91772118 C1251.71489027 721.63948904 1251.71472925 722.36125689 1251.71456335 723.10489649 C1251.71325618 728.95984657 1251.71325618 728.95984657 1251.71260216 731.86149258 C1251.70221331 778.01754024 1251.70997525 824.17354975 1251.73360361 870.32959231 C1251.73954759 881.95972237 1251.7454394 893.58985245 1251.75101293 905.2199827 C1251.7513567 905.9362105 1251.75170048 906.6524383 1251.75205466 907.39036998 C1251.76259146 929.48458432 1251.76817636 951.57879548 1251.76857008 973.67301233 C1251.76858286 974.36723545 1251.76859564 975.06145856 1251.76860881 975.77671874 C1251.76883717 991.02054863 1251.76783044 1006.26437823 1251.76569976 1021.50820797 C1251.76494508 1026.9633851 1251.76426685 1032.41856224 1251.76361961 1037.87373939 C1251.76345692 1039.23070481 1251.76328925 1040.58767024 1251.76311659 1041.94463566 C1251.76048608 1062.84563421 1251.76806955 1083.7466107 1251.78166689 1104.64760454 C1251.79660115 1127.65783427 1251.79739053 1150.66801556 1251.77959598 1173.67824427 C1251.77005736 1186.54088299 1251.77141785 1199.40340864 1251.78883067 1212.26603973 C1251.79936656 1220.87611759 1251.79515491 1229.48610985 1251.77935063 1238.09617936 C1251.7707691 1242.98973177 1251.76816926 1247.88306363 1251.78361995 1252.77660421 C1251.89687219 1291.30980994 1247.25806763 1328.17497422 1234.91255869 1364.84619387 C1234.26089664 1366.78491312 1233.61907764 1368.72670997 1232.97798838 1370.66894777 C1230.73263622 1377.41636441 1228.27178599 1383.94711024 1225.26705088 1390.39160402 C1224.73783437 1391.62612181 1224.21421004 1392.8630548 1223.69673838 1394.10254152 C1212.5653792 1420.33674984 1197.72275584 1444.88961345 1180.26705088 1467.39160402 C1179.5993165 1468.25398684 1178.93158213 1469.11636965 1178.24361338 1470.00488527 C1174.2287543 1475.10677141 1170.02105932 1479.98552297 1165.63814463 1484.77441652 C1163.71856577 1486.89322679 1161.84273237 1489.03698327 1159.97408213 1491.20019777 C1156.30620792 1495.39935592 1152.46116975 1499.38979329 1148.51705088 1503.32910402 C1147.82329355 1504.02205568 1147.12953623 1504.71500734 1146.41475595 1505.42895754 C1132.29497666 1519.38229543 1132.29497666 1519.38229543 1126.26705088 1521.39160402 C1125.93705088 1522.38160402 1125.60705088 1523.37160402 1125.26705088 1524.39160402 C1123.25629548 1525.99066173 1121.261148 1527.45003943 1119.14205088 1528.89160402 C1117.8468483 1529.79000182 1116.55260694 1530.68978668 1115.25923838 1531.59082277 C1114.25908701 1532.28570803 1114.25908701 1532.28570803 1113.23873056 1532.99463137 C1111.38714654 1534.30651395 1109.57635946 1535.65656044 1107.77486338 1537.03613527 C1097.17533297 1545.13105356 1085.87557874 1551.84712869 1074.26705088 1558.39160402 C1073.46783213 1558.84422609 1072.66861338 1559.29684816 1071.84517588 1559.76318606 C1039.65700076 1577.82113549 1003.46902251 1590.57568705 967.0267566 1596.45172318 C963.60832553 1597.00314224 960.19895271 1597.58391057 956.7925839 1598.20488651 C938.86703407 1601.25424596 920.80010148 1600.82285203 902.68117339 1600.78940941 C897.69642054 1600.78355234 892.7117012 1600.79518309 887.72695775 1600.80447109 C879.00804109 1600.81832808 870.2891763 1600.82113313 861.57025064 1600.81651171 C848.60396085 1600.80965697 835.63772326 1600.8199661 822.67144073 1600.83346927 C798.8336718 1600.85765712 774.99592137 1600.86301299 751.15814223 1600.86115875 C747.78553873 1600.86089909 744.41293523 1600.86066043 741.04033173 1600.86044367 C740.03534803 1600.86037761 740.03534803 1600.86037761 739.01006163 1600.86031022 C724.13068401 1600.85944505 709.25130983 1600.86424644 694.37193356 1600.87012558 C690.96950502 1600.87146658 687.56707647 1600.8727665 684.16464792 1600.87407123 C682.79899099 1600.87459576 681.43333406 1600.87512035 680.06767712 1600.875645 C679.39071859 1600.87590478 678.71376006 1600.87616456 678.01628763 1600.87643221 C676.6469195 1600.8769584 675.27755137 1600.87748608 673.90818325 1600.87801523 C635.07417825 1600.89300309 596.24017598 1600.90178549 557.40616812 1600.89705904 C556.68774077 1600.89697318 555.96931342 1600.89688731 555.22911555 1600.89679884 C547.21882348 1600.89583954 539.20853142 1600.89480133 531.19823936 1600.89373996 C529.00605018 1600.89345044 526.81386099 1600.89316096 524.6216718 1600.89287155 C523.15900478 1600.89267755 521.69633775 1600.89248205 520.23367073 1600.89228506 C474.00250726 1600.88607214 427.77139619 1600.90091917 381.54024423 1600.93359621 C369.89393387 1600.94182036 358.24762347 1600.94997073 346.60131277 1600.95769747 C345.88407119 1600.95817366 345.1668296 1600.95864986 344.42785343 1600.95914049 C322.29749241 1600.97374249 300.16713574 1600.98217415 278.03677 1600.98426302 C277.34126204 1600.98432934 276.64575408 1600.98439565 275.92917012 1600.98446398 C260.65598913 1600.9858585 245.38280845 1600.98574629 230.10962747 1600.98425389 C224.64366138 1600.98373185 219.17769528 1600.98331465 213.71172917 1600.98294572 C212.35209318 1600.9828525 210.99245718 1600.98275336 209.63282118 1600.98264828 C188.03225435 1600.98102796 166.43172672 1600.99379875 144.83117004 1601.01380605 C122.4479554 1601.03441644 100.06480688 1601.03642467 77.68158976 1601.0176505 C64.7997764 1601.00736351 51.91814172 1601.01069383 39.03634471 1601.03418136 C30.40834591 1601.04851066 21.78047804 1601.04433021 13.15248786 1601.02573559 C8.25192648 1601.01567571 3.35171043 1601.01300565 -1.54882815 1601.03305628 C-30.96696247 1601.14542697 -59.11641654 1598.67348955 -87.73294912 1591.39160402 C-88.66107412 1591.15957277 -89.58919912 1590.92754152 -90.54544912 1590.68847902 C-93.28974048 1589.96893922 -96.00936746 1589.18612657 -98.73294912 1588.39160402 C-99.42018057 1588.19872805 -100.10741202 1588.00585207 -100.81546866 1587.80713137 C-117.00088064 1583.26081992 -132.42021979 1577.3074525 -147.73294912 1570.39160402 C-148.50936758 1570.04210695 -149.28578604 1569.69260988 -150.08573233 1569.33252199 C-174.57826271 1558.21327444 -197.13897655 1543.95077573 -218.26419912 1527.31738527 C-220.77256951 1525.31146126 -220.77256951 1525.31146126 -223.73294912 1523.39160402 C-223.73294912 1522.73160402 -223.73294912 1522.07160402 -223.73294912 1521.39160402 C-224.56560293 1521.01962893 -224.56560293 1521.01962893 -225.41507803 1520.64013918 C-234.55897581 1515.71472384 -242.11576305 1507.3232606 -249.35794912 1500.01660402 C-250.23451162 1499.1477759 -251.11107412 1498.27894777 -252.01419912 1497.38379152 C-257.23178248 1492.15072572 -262.03815023 1486.73504426 -266.65360342 1480.96509035 C-268.51325397 1478.66350805 -270.42850512 1476.44400897 -272.40091787 1474.23926027 C-275.88920187 1470.28921782 -278.98963089 1466.11883961 -282.04544912 1461.82910402 C-282.60667471 1461.04462893 -283.1679003 1460.26015383 -283.74613272 1459.45190676 C-298.23407889 1439.10410746 -310.32036288 1418.12001005 -320.73294912 1395.39160402 C-321.0407128 1394.7285425 -321.34847647 1394.06548098 -321.66556631 1393.38232668 C-333.35143754 1368.08643293 -340.62982995 1340.56796936 -345.26285867 1313.16250003 C-345.55282179 1311.4533446 -345.84758879 1309.74498646 -346.15021765 1308.03802815 C-349.4443277 1289.01486282 -349.1636861 1269.96296133 -349.12455315 1250.72853331 C-349.11778081 1245.75030148 -349.1285405 1240.77210006 -349.13694899 1235.79387494 C-349.14926797 1227.08807261 -349.15054904 1218.38232421 -349.14439856 1209.67651613 C-349.1352767 1196.72996181 -349.14336422 1183.78345703 -349.1546898 1170.83690649 C-349.17489481 1147.03648733 -349.17642393 1123.2360895 -349.17103918 1099.43566437 C-349.17028337 1096.06898387 -349.16955576 1092.70230337 -349.1688572 1089.33562286 C-349.16871811 1088.66681378 -349.16857902 1087.9980047 -349.16843571 1087.30892867 C-349.16547727 1072.45488795 -349.1685023 1057.6008502 -349.17275349 1042.74681002 C-349.17333565 1040.71090359 -349.1739045 1038.67499716 -349.17446912 1036.63909073 C-349.17598423 1031.18079025 -349.17751114 1025.72248977 -349.17906213 1020.2641893 C-349.18981113 982.18400693 -349.19452877 944.10382732 -349.18659197 906.02364405 C-349.18644366 905.30658202 -349.18629536 904.58951999 -349.18614256 903.85072881 C-349.18448372 895.85564814 -349.18273413 887.8605675 -349.18094955 879.86548686 C-349.18078852 879.14371901 -349.1806275 878.42195116 -349.18046159 877.67831156 C-349.17915443 871.82336146 -349.17915443 871.82336146 -349.17850041 868.92171547 C-349.16811156 822.76566781 -349.1758735 776.60965829 -349.19950186 730.45361574 C-349.20544584 718.82348568 -349.21133765 707.1933556 -349.21691118 695.56322535 C-349.21725495 694.84699755 -349.21759872 694.13076974 -349.21795291 693.39283807 C-349.22848971 671.29862373 -349.23407461 649.20441257 -349.23446833 627.11019571 C-349.23448111 626.4159726 -349.23449389 625.72174949 -349.23450706 625.00648931 C-349.23473541 609.76265942 -349.23372869 594.51882981 -349.23159801 579.27500008 C-349.23084333 573.81982295 -349.2301651 568.36464581 -349.22951786 562.90946866 C-349.22935516 561.55250324 -349.2291875 560.19553781 -349.22901484 558.83857239 C-349.22638433 537.93757384 -349.2339678 517.03659734 -349.24756514 496.13560351 C-349.2624994 473.12537378 -349.26328878 450.11519249 -349.24549423 427.10496378 C-349.23595561 414.24232506 -349.2373161 401.37979941 -349.25472891 388.51716832 C-349.26526481 379.90709046 -349.26105316 371.2970982 -349.24524888 362.68702869 C-349.23666735 357.79347628 -349.23406751 352.90014442 -349.2495182 348.00660384 C-349.33225142 319.86733882 -347.50213967 292.83884574 -340.73294912 265.39160402 C-340.49205557 264.41159426 -340.25116202 263.43158449 -340.00296866 262.42187746 C-336.37263293 247.87830347 -332.05643148 233.74914072 -326.64994131 219.76758059 C-325.81894757 217.61443066 -325.01083367 215.45435995 -324.20951162 213.29004152 C-321.03375858 204.95588299 -317.13799013 197.19269961 -312.88138662 189.37597902 C-311.10518031 186.11318199 -309.46006051 182.80649895 -307.85794912 179.45410402 C-301.50276688 166.65596077 -293.56132131 154.64164869 -285.05716787 143.18066652 C-283.63513377 141.25945231 -282.23102444 139.3257935 -280.82669912 137.39160402 C-275.31777744 129.86256593 -269.58896533 122.75636378 -263.17435537 115.98144777 C-261.16590158 113.85087999 -259.2482484 111.68809407 -257.35794912 109.45410402 C-254.02838215 105.61981052 -250.4882423 102.00264612 -246.92044912 98.39160402 C-246.34439932 97.80258303 -245.76834952 97.21356203 -245.17484366 96.60669191 C-243.73312001 95.16176634 -242.23699504 93.77153985 -240.73294912 92.39160402 C-240.07294912 92.39160402 -239.41294912 92.39160402 -238.73294912 92.39160402 C-238.23794912 90.90660402 -238.23794912 90.90660402 -237.73294912 89.39160402 C-236.00068638 87.78347737 -234.19844823 86.24963086 -232.35794912 84.76660402 C-231.38083975 83.9699634 -230.40373037 83.17332277 -229.39701162 82.35254152 C-226.73294912 80.39160402 -226.73294912 80.39160402 -223.73294912 79.39160402 C-223.23794912 77.90660402 -223.23794912 77.90660402 -222.73294912 76.39160402 C-220.53832434 74.60680092 -218.35212385 72.95664179 -216.04544912 71.32910402 C-215.37062491 70.84522219 -214.69580069 70.36134035 -214.00052725 69.86279543 C-212.59782972 68.85792178 -211.19301442 67.85599822 -209.78617178 66.85693606 C-207.89569979 65.50775497 -206.02072267 64.14031089 -204.15091787 62.76269777 C-196.5110351 57.16236272 -188.63692661 52.15245295 -180.44681631 47.39697512 C-178.92808806 46.50607441 -177.42674289 45.58568569 -175.92826162 44.66113527 C-165.64496221 38.38683229 -154.65076469 33.44652421 -143.73294912 28.39160402 C-143.05973623 28.07803957 -142.38652334 27.76447512 -141.69291006 27.44140871 C-115.82374673 15.49623949 -87.70732822 8.33071475 -59.73294912 3.39160402 C-58.97008745 3.25390541 -58.20722577 3.1162068 -57.42124707 2.9743355 C-38.3680624 -0.33890688 -19.2660163 -0.03911476 0 0 Z M-27.10794912 98.70410402 C-28.08940909 98.92284182 -29.07086905 99.14157961 -30.08207022 99.36694582 C-32.97120435 100.02045718 -35.85235016 100.70156685 -38.73294912 101.39160402 C-39.98881827 101.68357668 -39.98881827 101.68357668 -41.2700585 101.98144777 C-61.5919428 106.74567287 -80.95759111 114.33962241 -99.73294912 123.39160402 C-100.45256827 123.73771731 -101.17218741 124.08383059 -101.91361319 124.44043215 C-119.40801307 132.98100532 -135.6357592 144.14142734 -150.73294912 156.39160402 C-151.71392569 157.16890871 -152.69490225 157.9462134 -153.70560537 158.74707277 C-168.01007281 170.41127188 -181.52687395 183.71287698 -192.73294912 198.39160402 C-193.32978506 199.09801027 -193.926621 199.80441652 -194.54154287 200.53222902 C-206.46215837 214.70809609 -216.27243066 230.95337867 -224.73294912 247.39160402 C-225.25381094 248.40239016 -225.25381094 248.40239016 -225.78519522 249.43359621 C-248.35182393 293.87680861 -255.06971105 340.46485571 -254.98988423 389.6853733 C-254.9847661 394.22177931 -254.99134822 398.75817189 -254.9963709 403.29457595 C-255.00356465 411.22911403 -255.00339345 419.16362485 -254.99827658 427.09816416 C-254.99068811 438.89758983 -254.9945913 450.69699266 -255.00069319 462.49641819 C-255.01120857 483.57530269 -255.01031824 504.65417504 -255.00453537 525.73306069 C-254.99949911 544.1817094 -254.99819325 562.63035367 -255.00058066 581.07900293 C-255.00073343 582.30397987 -255.0008862 583.5289568 -255.0010436 584.79105424 C-255.0016663 589.76399169 -255.0023031 594.73692913 -255.00296312 599.70986657 C-255.00907797 646.33856347 -255.0035394 692.96725264 -254.99276933 739.59594834 C-254.98328026 780.99325138 -254.98412625 822.39054129 -254.99369131 863.78784426 C-255.00440882 910.32814613 -255.00864248 956.86844118 -255.00246678 1003.40874411 C-255.00182538 1008.37341535 -255.0011997 1013.33808658 -255.00058066 1018.30275782 C-255.0004225 1019.52513156 -255.00026435 1020.7475053 -255.0001014 1022.00692067 C-254.99782968 1040.43872711 -255.00048102 1058.87052862 -255.00553976 1077.30233439 C-255.01126577 1098.26954188 -255.00981273 1119.23673535 -254.99897827 1140.2039411 C-254.99311933 1151.92802055 -254.9927026 1163.65206963 -255.00027062 1175.37614827 C-255.00477386 1183.2197404 -255.00193106 1191.0633083 -254.99326108 1198.90689686 C-254.98853005 1203.36759751 -254.98682096 1207.82823808 -254.99407305 1212.28893673 C-255.14468604 1245.65278404 -255.14468604 1245.65278404 -250.60794912 1278.64160402 C-250.291444 1280.16467165 -250.291444 1280.16467165 -249.96854483 1281.71850832 C-245.75863072 1301.1713684 -239.80473556 1320.19665736 -231.73294912 1338.39160402 C-231.33237295 1339.29829836 -230.93179678 1340.2049927 -230.51908194 1341.13916262 C-219.42903774 1365.93290926 -204.9788156 1388.34774517 -187.13041006 1408.7893091 C-186.13321285 1409.93267131 -185.14235496 1411.08157526 -184.15580069 1412.23413332 C-173.77013682 1424.28775266 -162.3877013 1435.72901463 -149.73294912 1445.39160402 C-148.35623037 1446.51115481 -148.35623037 1446.51115481 -146.95169912 1447.65332277 C-110.74925559 1476.62460813 -65.5381475 1496.29618758 -19.73294912 1503.39160402 C-18.93648245 1503.51719608 -18.14001577 1503.64278814 -17.31941374 1503.77218602 C1.56855354 1506.64924378 20.27725452 1506.82099749 39.32431067 1506.77080533 C43.88399245 1506.76218406 48.44364826 1506.7712228 53.00332869 1506.77786948 C60.97092602 1506.78710831 68.93846004 1506.78535554 76.90605654 1506.77613695 C88.75444192 1506.76246627 100.60277923 1506.76612578 112.45116821 1506.77309556 C133.61793274 1506.78499055 154.78466737 1506.77996059 175.95143023 1506.76781728 C194.47276957 1506.75726445 212.99409875 1506.75274392 231.51544107 1506.7541128 C232.74590994 1506.75419683 233.97637881 1506.75428086 235.24413462 1506.75436744 C240.23946575 1506.7547197 245.23479687 1506.75510372 250.23012799 1506.75553301 C296.37963015 1506.75943766 342.52911527 1506.74739993 388.67861239 1506.72689579 C430.91236091 1506.70814802 473.14609154 1506.70173345 515.37984384 1506.70727785 C518.04951203 1506.70762484 520.71918022 1506.70797045 523.38884841 1506.70831614 C524.70870284 1506.70848714 526.02855727 1506.70865813 527.38840729 1506.70883431 C534.03282936 1506.7096879 540.67725144 1506.71051168 547.32167353 1506.71130331 C549.28807836 1506.71153893 549.28807836 1506.71153893 551.29420854 1506.71177931 C586.06266918 1506.71577166 620.83112817 1506.71029079 655.59958781 1506.70179202 C659.34177723 1506.70088501 663.08396665 1506.69997936 666.82615607 1506.69907679 C669.30845104 1506.69847568 671.79074601 1506.69786706 674.27304097 1506.69725088 C691.55730962 1506.69303438 708.84157501 1506.6924492 726.125844 1506.69435637 C748.40011535 1506.696802 770.67436927 1506.69270586 792.94863586 1506.67714637 C804.71981765 1506.66911259 816.49097042 1506.66648242 828.26215392 1506.67178873 C836.13441529 1506.6747755 844.0066511 1506.67043272 851.87890637 1506.66024015 C856.35753196 1506.65463853 860.83609858 1506.65206968 865.31472455 1506.65840673 C882.71893494 1506.68097292 899.9757901 1506.67182956 917.26705088 1504.39160402 C918.5591808 1504.22573158 919.85131072 1504.05985914 921.1825961 1503.88896026 C927.12143597 1503.08429351 932.80739149 1501.83178407 938.56001963 1500.16113527 C941.23990635 1499.39932043 943.92754639 1498.76743745 946.64205088 1498.14160402 C989.40460095 1487.47859089 1028.13034209 1466.17251803 1061.26705088 1437.39160402 C1062.08560556 1436.68648684 1062.90416025 1435.98136965 1063.74751963 1435.25488527 C1075.51120559 1424.90993531 1086.70843153 1413.81599539 1096.26705088 1401.39160402 C1097.03919931 1400.43640871 1097.81134775 1399.4812134 1098.60689463 1398.49707277 C1105.94162023 1389.2852136 1112.18122234 1379.46220125 1118.26705088 1369.39160402 C1118.87613291 1368.38855227 1118.87613291 1368.38855227 1119.49751963 1367.36523684 C1135.03857815 1341.52093389 1145.53516993 1313.06603996 1151.78804697 1283.61816652 C1152.21796593 1281.61976646 1152.68728162 1279.62993804 1153.16158213 1277.64160402 C1158.34391492 1254.76785929 1157.56206061 1230.85531849 1157.52398598 1207.53777811 C1157.51884697 1203.00800994 1157.52545798 1198.47825485 1157.53047265 1193.94848861 C1157.5376514 1186.03344789 1157.5375046 1178.11843452 1157.53237833 1170.20339258 C1157.52477613 1158.43319979 1157.52870002 1146.66302984 1157.53479494 1134.89283718 C1157.54529888 1113.86596833 1157.54442477 1092.83911167 1157.53863712 1071.81224167 C1157.53359807 1053.41394893 1157.53229631 1035.01566064 1157.53468241 1016.61736734 C1157.53483518 1015.39507143 1157.53498795 1014.17277552 1157.53514535 1012.91344033 C1157.53576806 1007.95129965 1157.53640486 1002.98915897 1157.53706487 998.0270183 C1157.5431767 951.52198148 1157.5376454 905.01695242 1157.52687108 858.5119168 C1157.51737757 817.2212366 1157.51823234 775.93057513 1157.52779306 734.63989504 C1157.53850787 688.21018839 1157.54274616 641.78048858 1157.53656854 595.35078086 C1157.53592713 590.3994412 1157.53530145 585.44810154 1157.53468241 580.49676188 C1157.53452425 579.27768467 1157.5343661 578.05860746 1157.53420315 576.80258852 C1157.53193079 558.41521225 1157.53458387 540.02784093 1157.53964151 521.64046534 C1157.54536421 500.73148376 1157.54392129 479.82251624 1157.53308002 458.91353641 C1157.52721648 447.21990551 1157.5268111 435.52630506 1157.53437237 423.83267496 C1157.53886981 416.01338534 1157.53604318 408.19412005 1157.52736284 400.37483402 C1157.52262399 395.92564131 1157.52093937 391.47650894 1157.5281748 387.02731822 C1157.55376316 370.06217474 1157.57751656 353.23652436 1155.26705088 336.39160402 C1155.11830019 335.26906589 1154.96954951 334.14652776 1154.81629123 332.98997332 C1154.45615437 330.38258809 1154.03785863 327.79591338 1153.57955088 325.20410402 C1153.41366464 324.26469973 1153.24777841 323.32529543 1153.07686533 322.35742434 C1144.65863746 277.18717203 1124.36756619 233.88882704 1095.26705088 198.39160402 C1094.58304209 197.55532473 1094.58304209 197.55532473 1093.88521494 196.7021509 C1081.49839979 181.67825019 1067.79472194 167.19074617 1052.26705088 155.39160402 C1051.31572275 154.62332277 1050.36439463 153.85504152 1049.38423838 153.06347902 C1026.52827425 134.84744746 999.71490676 120.35752327 972.26705088 110.39160402 C971.52020029 110.1199341 970.7733497 109.84826418 970.00386728 109.56836184 C933.42283964 96.54031666 896.78467068 94.23337589 858.31758576 94.25693511 C853.81395072 94.25858288 849.3103202 94.25441526 844.80668665 94.25102593 C836.92807796 94.24589407 829.0494754 94.24445087 821.17086519 94.24548205 C809.45447689 94.24701175 797.73809535 94.2428347 786.02170837 94.23760742 C763.87518834 94.22795232 741.72867062 94.22512388 719.58214873 94.22455036 C702.47659818 94.22409029 685.37104854 94.2220292 668.26549829 94.21884974 C663.33636365 94.21795215 658.407229 94.21706234 653.47809435 94.21617486 C652.25259856 94.21595381 651.02710276 94.21573276 649.76447073 94.21550502 C615.30879744 94.20935361 580.85312445 94.20540417 546.39745058 94.20584829 C544.45012789 94.20587166 544.45012789 94.20587166 542.46346535 94.2058955 C535.88401021 94.20597861 529.30455506 94.20607765 522.72509992 94.20618021 C521.41846446 94.20620016 520.11182901 94.2062201 518.76559854 94.20624065 C516.12326571 94.20628109 513.48093289 94.20632289 510.83860006 94.20636604 C469.73011138 94.20697877 428.62163095 94.19947158 387.51314463 94.18579348 C341.29694898 94.17042211 295.08075875 94.16182787 248.86456038 94.1627567 C243.9335396 94.16283133 239.00251883 94.16288004 234.07149805 94.16291102 C232.85741156 94.16292267 231.64332507 94.16293432 230.39244808 94.16294633 C210.88401862 94.16297706 191.37559635 94.15660071 171.86716903 94.14797875 C152.25085897 94.13948859 132.63455938 94.13852301 113.0182485 94.14508807 C101.37679939 94.14877445 89.73538216 94.14697868 78.09393644 94.13714573 C70.30283735 94.13112307 62.51176121 94.13246647 54.72066314 94.13961623 C50.29156491 94.14347848 45.86252814 94.14432965 41.43343437 94.13615888 C6.92717697 93.77546738 6.92717697 93.77546738 -27.10794912 98.70410402 Z " fill="#1F2434" transform="translate(348.73294912464917,-0.3916040239855647)"/>
<path d="M0 0 C4.98849785 0.0067721 9.97696534 -0.00398724 14.9654565 -0.01239584 C23.68928356 -0.02471504 32.41305679 -0.0259958 41.13688959 -0.01984541 C54.11024639 -0.01072369 67.08355375 -0.01881096 80.05690677 -0.03013665 C103.90657473 -0.05034184 127.75622141 -0.05187075 151.60589534 -0.04648603 C154.97956029 -0.04573022 158.35322525 -0.04500261 161.72689022 -0.04430406 C162.73218459 -0.04409542 162.73218459 -0.04409542 163.75778793 -0.04388257 C178.64253162 -0.04092414 193.52727234 -0.04394913 208.41201549 -0.04820034 C210.45212042 -0.0487825 212.49222535 -0.04935135 214.53233029 -0.04991598 C220.00188466 -0.05143108 225.47143904 -0.05295799 230.9409934 -0.05450898 C269.09976746 -0.065258 307.25853875 -0.0699756 345.41731371 -0.06203882 C346.13585813 -0.06189052 346.85440255 -0.06174221 347.59472104 -0.06158941 C355.60633312 -0.05993057 363.61794517 -0.05818098 371.62955722 -0.0563964 C372.3528177 -0.05623537 373.07607819 -0.05607435 373.82125565 -0.05590845 C379.68832273 -0.05460128 379.68832273 -0.05460128 382.5959608 -0.05394726 C428.84750391 -0.0435584 475.09900895 -0.05132036 521.35054697 -0.07494871 C533.00474014 -0.08089269 544.65893334 -0.0867845 556.3131267 -0.09235804 C557.38969066 -0.09287369 557.38969066 -0.09287369 558.48800339 -0.09339976 C580.62785057 -0.10393652 602.76769457 -0.10952146 624.90754427 -0.10991518 C625.95102674 -0.10993435 625.95102674 -0.10993435 627.01558967 -0.10995391 C642.29084654 -0.11018227 657.56610314 -0.10917555 672.84135986 -0.10704486 C678.30778103 -0.10629018 683.77420221 -0.10561195 689.2406234 -0.10496471 C690.60038623 -0.10480202 691.96014907 -0.10463435 693.31991191 -0.10446169 C714.9327254 -0.10174719 736.5455157 -0.1102661 758.1583242 -0.1243158 C780.54757481 -0.13876349 802.93678155 -0.13821986 825.3260307 -0.12094108 C838.21533076 -0.11140232 851.10451798 -0.11276325 863.99381042 -0.13017577 C872.62165997 -0.14071141 881.24942409 -0.13650035 889.87726531 -0.12069573 C894.78096798 -0.11211394 899.68445055 -0.10951503 904.58814141 -0.12496505 C931.65836215 -0.20439749 957.66882825 1.23304212 984.07955088 7.82910402 C985.33106943 8.13203371 986.58258798 8.4349634 987.87203134 8.74707277 C996.80909471 10.94381482 1005.56767968 13.38900563 1014.26705088 16.39160402 C1015.79672747 16.89633332 1017.32669324 17.40018676 1018.85689463 17.90332277 C1060.16406874 31.6942908 1096.95079101 53.59762833 1130.26705088 81.39160402 C1130.77784189 81.81071047 1131.28863291 82.22981691 1131.81490244 82.66162356 C1145.34657685 93.77721954 1158.51752018 105.95103489 1169.24751963 119.83691652 C1170.97383903 122.02069388 1172.75927675 124.08489059 1174.61080088 126.16113527 C1178.20569794 130.24531258 1181.42449799 134.52506355 1184.57955088 138.95410402 C1185.14077646 139.73857912 1185.70200205 140.52305422 1186.28023447 141.33130129 C1199.44525808 159.82110342 1210.88328114 178.77300449 1220.35054697 199.42968996 C1221.48164898 201.85098345 1222.70917715 204.21487073 1223.95455088 206.57910402 C1227.33046191 213.26131967 1229.75883929 220.35043863 1232.26705088 227.39160402 C1232.67826181 228.52984621 1233.08947275 229.6680884 1233.51314463 230.84082277 C1239.92319887 249.27235579 1244.70820748 268.23889395 1247.79672868 287.49821046 C1248.08374885 289.26394109 1248.37782829 291.02856654 1248.68434515 292.7910173 C1251.96365744 311.80522516 1251.69776725 330.83037361 1251.6586549 350.05467473 C1251.65188256 355.03290657 1251.66264225 360.01110799 1251.67105074 364.98933311 C1251.68336972 373.69513544 1251.68465079 382.40088383 1251.67850031 391.10669191 C1251.66937845 404.05324624 1251.67746597 416.99975102 1251.68879155 429.94630156 C1251.70899656 453.74672071 1251.71052568 477.54711855 1251.70514093 501.34754368 C1251.70438512 504.71422417 1251.70365751 508.08090468 1251.70295895 511.44758518 C1251.70275032 512.45079881 1251.70275032 512.45079881 1251.70253747 513.47427938 C1251.69957902 528.3283201 1251.70260405 543.18235784 1251.70685524 558.03639803 C1251.7074374 560.07230446 1251.70800625 562.10821089 1251.70857088 564.14411732 C1251.71008598 569.6024178 1251.71161289 575.06071828 1251.71316388 580.51901875 C1251.72391288 618.59920112 1251.72863053 656.67938073 1251.72069372 694.759564 C1251.72047126 695.83515704 1251.72047126 695.83515704 1251.72024431 696.93247924 C1251.71858547 704.9275599 1251.71683588 712.92264055 1251.7150513 720.91772118 C1251.71489027 721.63948904 1251.71472925 722.36125689 1251.71456335 723.10489649 C1251.71325618 728.95984657 1251.71325618 728.95984657 1251.71260216 731.86149258 C1251.70221331 778.01754024 1251.70997525 824.17354975 1251.73360361 870.32959231 C1251.73954759 881.95972237 1251.7454394 893.58985245 1251.75101293 905.2199827 C1251.7513567 905.9362105 1251.75170048 906.6524383 1251.75205466 907.39036998 C1251.76259146 929.48458432 1251.76817636 951.57879548 1251.76857008 973.67301233 C1251.76858286 974.36723545 1251.76859564 975.06145856 1251.76860881 975.77671874 C1251.76883717 991.02054863 1251.76783044 1006.26437823 1251.76569976 1021.50820797 C1251.76494508 1026.9633851 1251.76426685 1032.41856224 1251.76361961 1037.87373939 C1251.76345692 1039.23070481 1251.76328925 1040.58767024 1251.76311659 1041.94463566 C1251.76048608 1062.84563421 1251.76806955 1083.7466107 1251.78166689 1104.64760454 C1251.79660115 1127.65783427 1251.79739053 1150.66801556 1251.77959598 1173.67824427 C1251.77005736 1186.54088299 1251.77141785 1199.40340864 1251.78883067 1212.26603973 C1251.79936656 1220.87611759 1251.79515491 1229.48610985 1251.77935063 1238.09617936 C1251.7707691 1242.98973177 1251.76816926 1247.88306363 1251.78361995 1252.77660421 C1251.89687219 1291.30980994 1247.25806763 1328.17497422 1234.91255869 1364.84619387 C1234.26089664 1366.78491312 1233.61907764 1368.72670997 1232.97798838 1370.66894777 C1230.73263622 1377.41636441 1228.27178599 1383.94711024 1225.26705088 1390.39160402 C1224.73783437 1391.62612181 1224.21421004 1392.8630548 1223.69673838 1394.10254152 C1212.5653792 1420.33674984 1197.72275584 1444.88961345 1180.26705088 1467.39160402 C1179.5993165 1468.25398684 1178.93158213 1469.11636965 1178.24361338 1470.00488527 C1174.2287543 1475.10677141 1170.02105932 1479.98552297 1165.63814463 1484.77441652 C1163.71856577 1486.89322679 1161.84273237 1489.03698327 1159.97408213 1491.20019777 C1156.30620792 1495.39935592 1152.46116975 1499.38979329 1148.51705088 1503.32910402 C1147.82329355 1504.02205568 1147.12953623 1504.71500734 1146.41475595 1505.42895754 C1132.29497666 1519.38229543 1132.29497666 1519.38229543 1126.26705088 1521.39160402 C1125.93705088 1522.38160402 1125.60705088 1523.37160402 1125.26705088 1524.39160402 C1123.25629548 1525.99066173 1121.261148 1527.45003943 1119.14205088 1528.89160402 C1117.8468483 1529.79000182 1116.55260694 1530.68978668 1115.25923838 1531.59082277 C1114.25908701 1532.28570803 1114.25908701 1532.28570803 1113.23873056 1532.99463137 C1111.38714654 1534.30651395 1109.57635946 1535.65656044 1107.77486338 1537.03613527 C1097.17533297 1545.13105356 1085.87557874 1551.84712869 1074.26705088 1558.39160402 C1073.46783213 1558.84422609 1072.66861338 1559.29684816 1071.84517588 1559.76318606 C1039.65700076 1577.82113549 1003.46902251 1590.57568705 967.0267566 1596.45172318 C963.60832553 1597.00314224 960.19895271 1597.58391057 956.7925839 1598.20488651 C938.86703407 1601.25424596 920.80010148 1600.82285203 902.68117339 1600.78940941 C897.69642054 1600.78355234 892.7117012 1600.79518309 887.72695775 1600.80447109 C879.00804109 1600.81832808 870.2891763 1600.82113313 861.57025064 1600.81651171 C848.60396085 1600.80965697 835.63772326 1600.8199661 822.67144073 1600.83346927 C798.8336718 1600.85765712 774.99592137 1600.86301299 751.15814223 1600.86115875 C747.78553873 1600.86089909 744.41293523 1600.86066043 741.04033173 1600.86044367 C740.03534803 1600.86037761 740.03534803 1600.86037761 739.01006163 1600.86031022 C724.13068401 1600.85944505 709.25130983 1600.86424644 694.37193356 1600.87012558 C690.96950502 1600.87146658 687.56707647 1600.8727665 684.16464792 1600.87407123 C682.79899099 1600.87459576 681.43333406 1600.87512035 680.06767712 1600.875645 C679.39071859 1600.87590478 678.71376006 1600.87616456 678.01628763 1600.87643221 C676.6469195 1600.8769584 675.27755137 1600.87748608 673.90818325 1600.87801523 C635.07417825 1600.89300309 596.24017598 1600.90178549 557.40616812 1600.89705904 C556.68774077 1600.89697318 555.96931342 1600.89688731 555.22911555 1600.89679884 C547.21882348 1600.89583954 539.20853142 1600.89480133 531.19823936 1600.89373996 C529.00605018 1600.89345044 526.81386099 1600.89316096 524.6216718 1600.89287155 C523.15900478 1600.89267755 521.69633775 1600.89248205 520.23367073 1600.89228506 C474.00250726 1600.88607214 427.77139619 1600.90091917 381.54024423 1600.93359621 C369.89393387 1600.94182036 358.24762347 1600.94997073 346.60131277 1600.95769747 C345.88407119 1600.95817366 345.1668296 1600.95864986 344.42785343 1600.95914049 C322.29749241 1600.97374249 300.16713574 1600.98217415 278.03677 1600.98426302 C277.34126204 1600.98432934 276.64575408 1600.98439565 275.92917012 1600.98446398 C260.65598913 1600.9858585 245.38280845 1600.98574629 230.10962747 1600.98425389 C224.64366138 1600.98373185 219.17769528 1600.98331465 213.71172917 1600.98294572 C212.35209318 1600.9828525 210.99245718 1600.98275336 209.63282118 1600.98264828 C188.03225435 1600.98102796 166.43172672 1600.99379875 144.83117004 1601.01380605 C122.4479554 1601.03441644 100.06480688 1601.03642467 77.68158976 1601.0176505 C64.7997764 1601.00736351 51.91814172 1601.01069383 39.03634471 1601.03418136 C30.40834591 1601.04851066 21.78047804 1601.04433021 13.15248786 1601.02573559 C8.25192648 1601.01567571 3.35171043 1601.01300565 -1.54882815 1601.03305628 C-30.96696247 1601.14542697 -59.11641654 1598.67348955 -87.73294912 1591.39160402 C-88.66107412 1591.15957277 -89.58919912 1590.92754152 -90.54544912 1590.68847902 C-93.28974048 1589.96893922 -96.00936746 1589.18612657 -98.73294912 1588.39160402 C-99.42018057 1588.19872805 -100.10741202 1588.00585207 -100.81546866 1587.80713137 C-117.00088064 1583.26081992 -132.42021979 1577.3074525 -147.73294912 1570.39160402 C-148.50936758 1570.04210695 -149.28578604 1569.69260988 -150.08573233 1569.33252199 C-174.57826271 1558.21327444 -197.13897655 1543.95077573 -218.26419912 1527.31738527 C-220.77256951 1525.31146126 -220.77256951 1525.31146126 -223.73294912 1523.39160402 C-223.73294912 1522.73160402 -223.73294912 1522.07160402 -223.73294912 1521.39160402 C-224.56560293 1521.01962893 -224.56560293 1521.01962893 -225.41507803 1520.64013918 C-234.55897581 1515.71472384 -242.11576305 1507.3232606 -249.35794912 1500.01660402 C-250.23451162 1499.1477759 -251.11107412 1498.27894777 -252.01419912 1497.38379152 C-257.23178248 1492.15072572 -262.03815023 1486.73504426 -266.65360342 1480.96509035 C-268.51325397 1478.66350805 -270.42850512 1476.44400897 -272.40091787 1474.23926027 C-275.88920187 1470.28921782 -278.98963089 1466.11883961 -282.04544912 1461.82910402 C-282.60667471 1461.04462893 -283.1679003 1460.26015383 -283.74613272 1459.45190676 C-298.23407889 1439.10410746 -310.32036288 1418.12001005 -320.73294912 1395.39160402 C-321.0407128 1394.7285425 -321.34847647 1394.06548098 -321.66556631 1393.38232668 C-333.35143754 1368.08643293 -340.62982995 1340.56796936 -345.26285867 1313.16250003 C-345.55282179 1311.4533446 -345.84758879 1309.74498646 -346.15021765 1308.03802815 C-349.4443277 1289.01486282 -349.1636861 1269.96296133 -349.12455315 1250.72853331 C-349.11778081 1245.75030148 -349.1285405 1240.77210006 -349.13694899 1235.79387494 C-349.14926797 1227.08807261 -349.15054904 1218.38232421 -349.14439856 1209.67651613 C-349.1352767 1196.72996181 -349.14336422 1183.78345703 -349.1546898 1170.83690649 C-349.17489481 1147.03648733 -349.17642393 1123.2360895 -349.17103918 1099.43566437 C-349.17028337 1096.06898387 -349.16955576 1092.70230337 -349.1688572 1089.33562286 C-349.16871811 1088.66681378 -349.16857902 1087.9980047 -349.16843571 1087.30892867 C-349.16547727 1072.45488795 -349.1685023 1057.6008502 -349.17275349 1042.74681002 C-349.17333565 1040.71090359 -349.1739045 1038.67499716 -349.17446912 1036.63909073 C-349.17598423 1031.18079025 -349.17751114 1025.72248977 -349.17906213 1020.2641893 C-349.18981113 982.18400693 -349.19452877 944.10382732 -349.18659197 906.02364405 C-349.18644366 905.30658202 -349.18629536 904.58951999 -349.18614256 903.85072881 C-349.18448372 895.85564814 -349.18273413 887.8605675 -349.18094955 879.86548686 C-349.18078852 879.14371901 -349.1806275 878.42195116 -349.18046159 877.67831156 C-349.17915443 871.82336146 -349.17915443 871.82336146 -349.17850041 868.92171547 C-349.16811156 822.76566781 -349.1758735 776.60965829 -349.19950186 730.45361574 C-349.20544584 718.82348568 -349.21133765 707.1933556 -349.21691118 695.56322535 C-349.21725495 694.84699755 -349.21759872 694.13076974 -349.21795291 693.39283807 C-349.22848971 671.29862373 -349.23407461 649.20441257 -349.23446833 627.11019571 C-349.23448111 626.4159726 -349.23449389 625.72174949 -349.23450706 625.00648931 C-349.23473541 609.76265942 -349.23372869 594.51882981 -349.23159801 579.27500008 C-349.23084333 573.81982295 -349.2301651 568.36464581 -349.22951786 562.90946866 C-349.22935516 561.55250324 -349.2291875 560.19553781 -349.22901484 558.83857239 C-349.22638433 537.93757384 -349.2339678 517.03659734 -349.24756514 496.13560351 C-349.2624994 473.12537378 -349.26328878 450.11519249 -349.24549423 427.10496378 C-349.23595561 414.24232506 -349.2373161 401.37979941 -349.25472891 388.51716832 C-349.26526481 379.90709046 -349.26105316 371.2970982 -349.24524888 362.68702869 C-349.23666735 357.79347628 -349.23406751 352.90014442 -349.2495182 348.00660384 C-349.33225142 319.86733882 -347.50213967 292.83884574 -340.73294912 265.39160402 C-340.49205557 264.41159426 -340.25116202 263.43158449 -340.00296866 262.42187746 C-336.37263293 247.87830347 -332.05643148 233.74914072 -326.64994131 219.76758059 C-325.81894757 217.61443066 -325.01083367 215.45435995 -324.20951162 213.29004152 C-321.03375858 204.95588299 -317.13799013 197.19269961 -312.88138662 189.37597902 C-311.10518031 186.11318199 -309.46006051 182.80649895 -307.85794912 179.45410402 C-301.50276688 166.65596077 -293.56132131 154.64164869 -285.05716787 143.18066652 C-283.63513377 141.25945231 -282.23102444 139.3257935 -280.82669912 137.39160402 C-275.31777744 129.86256593 -269.58896533 122.75636378 -263.17435537 115.98144777 C-261.16590158 113.85087999 -259.2482484 111.68809407 -257.35794912 109.45410402 C-254.02838215 105.61981052 -250.4882423 102.00264612 -246.92044912 98.39160402 C-246.34439932 97.80258303 -245.76834952 97.21356203 -245.17484366 96.60669191 C-243.73312001 95.16176634 -242.23699504 93.77153985 -240.73294912 92.39160402 C-240.07294912 92.39160402 -239.41294912 92.39160402 -238.73294912 92.39160402 C-238.23794912 90.90660402 -238.23794912 90.90660402 -237.73294912 89.39160402 C-236.00068638 87.78347737 -234.19844823 86.24963086 -232.35794912 84.76660402 C-231.38083975 83.9699634 -230.40373037 83.17332277 -229.39701162 82.35254152 C-226.73294912 80.39160402 -226.73294912 80.39160402 -223.73294912 79.39160402 C-223.23794912 77.90660402 -223.23794912 77.90660402 -222.73294912 76.39160402 C-220.53832434 74.60680092 -218.35212385 72.95664179 -216.04544912 71.32910402 C-215.37062491 70.84522219 -214.69580069 70.36134035 -214.00052725 69.86279543 C-212.59782972 68.85792178 -211.19301442 67.85599822 -209.78617178 66.85693606 C-207.89569979 65.50775497 -206.02072267 64.14031089 -204.15091787 62.76269777 C-196.5110351 57.16236272 -188.63692661 52.15245295 -180.44681631 47.39697512 C-178.92808806 46.50607441 -177.42674289 45.58568569 -175.92826162 44.66113527 C-165.64496221 38.38683229 -154.65076469 33.44652421 -143.73294912 28.39160402 C-143.05973623 28.07803957 -142.38652334 27.76447512 -141.69291006 27.44140871 C-115.82374673 15.49623949 -87.70732822 8.33071475 -59.73294912 3.39160402 C-58.97008745 3.25390541 -58.20722577 3.1162068 -57.42124707 2.9743355 C-38.3680624 -0.33890688 -19.2660163 -0.03911476 0 0 Z M-31.73294912 36.39160402 C-33.72949291 36.70605967 -35.72947591 36.99983721 -37.73294912 37.26660402 C-64.99054788 41.37261542 -91.53475465 50.82842239 -116.47367178 62.35449465 C-118.73283788 63.39155296 -121.00308118 64.40054102 -123.27591787 65.40722902 C-146.06723196 75.66066965 -167.33111354 89.6750333 -186.73294912 105.39160402 C-187.60048819 106.08640871 -188.46802725 106.7812134 -189.36185537 107.49707277 C-195.67541501 112.59885045 -201.74933569 117.90882167 -207.73294912 123.39160402 C-208.77548485 124.32958554 -209.81847534 125.26706178 -210.86185537 126.20410402 C-217.74472427 132.42151631 -224.21870233 138.85835452 -230.35160147 145.82324465 C-231.28506912 146.88308844 -232.22302579 147.93899276 -233.16507803 148.9912134 C-245.77103102 163.08294315 -256.46536508 178.50879926 -266.527871 194.48974856 C-267.61553683 196.20630382 -268.72751461 197.90739549 -269.84232412 199.60644777 C-275.6580293 208.64405361 -280.12616293 218.24614725 -284.62259756 227.99023684 C-285.56730643 230.0333671 -286.52402852 232.06977688 -287.49076162 234.10254152 C-295.71465423 251.54063841 -303.11738937 270.10203437 -307.00199209 289.03906496 C-307.78203122 292.61671938 -308.7106065 296.13693061 -309.64701162 299.67676027 C-311.68560156 307.6458095 -313.00816381 315.63820157 -314.11600577 323.78320559 C-314.4214604 326.02402272 -314.74125135 328.26245316 -315.06302725 330.50097902 C-317.04602996 344.62981347 -317.88378026 358.5973213 -317.86158358 372.86860712 C-317.86293333 374.38696535 -317.86471896 375.90532324 -317.86689581 377.4236805 C-317.87159237 381.57435949 -317.87013508 385.72501634 -317.86761804 389.87569637 C-317.86597703 394.39978964 -317.87013238 398.92387833 -317.87352722 403.44797011 C-317.8786699 411.37022235 -317.88010038 419.29246849 -317.8790711 427.21472223 C-317.8775442 438.99603434 -317.88171234 450.7773397 -317.88694573 462.55865049 C-317.8966115 484.82736412 -317.89942969 507.09607544 -317.90000279 529.36479092 C-317.90046255 546.56533999 -317.90252207 563.76588816 -317.90570341 580.96643694 C-317.90660098 585.91993137 -317.90749079 590.8734258 -317.90837829 595.82692023 C-317.90859934 597.0584263 -317.90882039 598.28993238 -317.90904813 599.55875682 C-317.91520158 634.19482622 -317.91914878 668.83089531 -317.91870485 703.46696528 C-317.91868928 704.77256714 -317.9186737 706.078169 -317.91865765 707.42333456 C-317.91857454 714.040458 -317.9184755 720.65758144 -317.91837294 727.27470488 C-317.91835299 728.58885499 -317.91833305 729.9030051 -317.9183125 731.25697794 C-317.91827206 733.91451039 -317.91823026 736.57204284 -317.91818711 739.22957529 C-317.91757451 780.56549001 -317.92507827 821.90139462 -317.93875967 863.23730715 C-317.95412982 909.69443884 -317.96272532 956.15156513 -317.96179645 1002.60869952 C-317.96172182 1007.5653375 -317.96167311 1012.52197547 -317.96164213 1017.47861345 C-317.96163048 1018.69903247 -317.96161882 1019.91945149 -317.96160682 1021.1768529 C-317.96157608 1040.79268544 -317.96795435 1060.40851084 -317.9765744 1080.02434125 C-317.98506318 1099.74990435 -317.98603125 1119.47545704 -317.97946508 1139.20102096 C-317.97577751 1150.90930821 -317.97757803 1162.61756377 -317.98740742 1174.32584765 C-317.99342714 1182.16040004 -317.9920899 1189.99492958 -317.98493692 1197.82948094 C-317.98107216 1202.28430598 -317.98023091 1206.73906989 -317.98839427 1211.19389051 C-318.0286485 1234.69391611 -317.56821722 1257.98085346 -313.54544912 1281.20410402 C-313.33259268 1282.4505469 -313.11973623 1283.69698977 -312.90042959 1284.98120363 C-302.29500462 1344.62258607 -275.74567904 1406.00239646 -233.73294912 1450.39160402 C-232.60153365 1451.67765488 -231.47636966 1452.9692362 -230.35794912 1454.26660402 C-221.61914393 1464.24808335 -212.63435974 1473.56054065 -202.73294912 1482.39160402 C-202.15561026 1482.91367434 -201.57827139 1483.43574465 -200.98343741 1483.97363527 C-170.14152467 1511.82538179 -132.10574911 1534.99523785 -92.73294912 1548.39160402 C-91.9264794 1548.66955813 -91.12000967 1548.94751223 -90.28910147 1549.23388918 C-68.29292271 1557.05217685 -68.29292271 1557.05217685 -45.54154287 1561.93457277 C-42.59157619 1562.41460908 -39.73992264 1563.13964077 -36.84647452 1563.88110598 C-11.16304761 1570.08464596 15.7265799 1569.69224212 41.96533483 1569.65474049 C46.4902702 1569.65051861 51.01519018 1569.65800093 55.54012163 1569.663893 C63.44855235 1569.6726054 71.35695716 1569.67398491 79.26539148 1569.67038973 C91.02636322 1569.66505744 102.78731012 1569.67120332 114.54827916 1569.67947266 C136.78110577 1569.69467643 159.01392096 1569.69642145 181.24675169 1569.69394964 C198.42125871 1569.6921137 215.59576201 1569.69388288 232.77026857 1569.69817408 C235.24175129 1569.69877649 237.71323401 1569.69937769 240.18471673 1569.69997768 C243.90946895 1569.70088498 247.63422118 1569.70179365 251.35897341 1569.70271003 C285.97004652 1569.71113419 320.58111822 1569.71547899 355.19219221 1569.71130331 C356.49574024 1569.71114694 357.79928828 1569.71099056 359.14233777 1569.71082944 C365.74853376 1569.71002372 372.35472974 1569.70917795 378.96092572 1569.70831614 C380.27282699 1569.70814505 381.58472826 1569.70797397 382.93638411 1569.70779769 C385.58936445 1569.70745104 388.24234478 1569.70710251 390.89532512 1569.70675211 C432.16581082 1569.7013962 473.43626567 1569.70932383 514.70674814 1569.72778566 C561.12556731 1569.74852646 607.54437324 1569.7592244 653.9631973 1569.75521018 C658.91783914 1569.75481486 663.87248098 1569.75445331 668.82712282 1569.7541128 C670.65692063 1569.7539767 670.65692063 1569.7539767 672.52368404 1569.75383785 C690.8955942 1569.7526745 709.26749094 1569.75930018 727.63939775 1569.76992472 C748.54736148 1569.78200389 769.45529575 1569.78350447 790.36325993 1569.77113455 C802.0457006 1569.76453111 813.72807073 1569.7660786 825.41050568 1569.77972307 C833.2364114 1569.78802077 841.06226477 1569.78520164 848.88816631 1569.7737478 C853.33215526 1569.7675436 857.77600748 1569.7657527 862.21998807 1569.77761113 C892.10257189 1569.85191474 922.16002037 1568.82573746 951.26705088 1561.39160402 C952.68193253 1561.07111909 954.09827654 1560.75689123 955.51705088 1560.45410402 C968.4739622 1557.59464773 980.67731473 1553.6795103 993.06392588 1548.96972902 C995.6687164 1547.98252531 998.27546248 1547.04104033 1000.90767588 1546.12597902 C1020.5946961 1539.17269103 1039.67112364 1529.61813881 1057.26705088 1518.39160402 C1058.34575449 1517.70614504 1058.34575449 1517.70614504 1059.44625009 1517.0068384 C1085.40884752 1500.38447799 1110.99037795 1480.332839 1131.14205088 1456.85254152 C1132.79075049 1454.94320189 1134.45767497 1453.05813475 1136.14205088 1451.18066652 C1144.56483322 1441.72797354 1152.09775636 1431.82261433 1159.26705088 1421.39160402 C1159.79798349 1420.62251711 1160.32891611 1419.8534302 1160.87593759 1419.06103762 C1174.11760332 1399.72393805 1185.31076414 1379.04806672 1194.26705088 1357.39160402 C1194.78913332 1356.15981074 1195.31126732 1354.9280393 1195.83345713 1353.69629152 C1205.63622182 1329.99561239 1211.57824305 1305.54432524 1216.26705088 1280.39160402 C1216.47201181 1279.30363527 1216.67697275 1278.21566652 1216.88814463 1277.09472902 C1220.69012371 1254.8133632 1220.56238361 1232.22169001 1220.53018735 1209.69952143 C1220.52596544 1205.17547468 1220.5334478 1200.65144331 1220.53933985 1196.12740048 C1220.54805225 1188.2205001 1220.54943176 1180.31362564 1220.54583658 1172.40672167 C1220.54050427 1160.64797203 1220.5466502 1148.88924725 1220.55491951 1137.13050031 C1220.57012343 1114.90155274 1220.57186827 1092.67261661 1220.56939649 1070.44366493 C1220.56756051 1053.27155017 1220.56932982 1036.09943914 1220.57362093 1018.92732485 C1220.57422334 1016.45613377 1220.57482454 1013.98494269 1220.57542453 1011.51375161 C1220.57633183 1007.78942557 1220.5772405 1004.06509954 1220.57815688 1000.3407735 C1220.58658111 965.73327378 1220.59092581 931.12577546 1220.58675016 896.51827486 C1220.58659379 895.21485204 1220.58643741 893.91142923 1220.5862763 892.56850875 C1220.58547057 885.96296073 1220.5846248 879.35741271 1220.58376299 872.75186469 C1220.58359191 871.44009462 1220.58342082 870.12832454 1220.58324455 868.77680386 C1220.58289789 866.12408846 1220.58254936 863.47137306 1220.58219896 860.81865766 C1220.57684339 819.55487606 1220.5847697 778.29112449 1220.60323252 737.02734621 C1220.62397501 690.61474339 1220.6346709 644.20215381 1220.63065703 597.78954609 C1220.63026172 592.83516717 1220.62990016 587.88078825 1220.62955965 582.92640932 C1220.62946892 581.70661154 1220.62937819 580.48681376 1220.6292847 579.23005241 C1220.62812151 560.86169175 1220.63474587 542.49334451 1220.64537157 524.1249872 C1220.65745291 503.21961392 1220.65894887 482.31427009 1220.6465814 461.40889634 C1220.63997976 449.72888772 1220.64152122 438.04894966 1220.65516992 426.36894676 C1220.66347126 418.5433858 1220.66064387 410.71787718 1220.64919465 402.8923204 C1220.64299395 398.44934858 1220.64119008 394.00651344 1220.65305798 389.56355001 C1220.72427396 360.93725676 1219.75776562 332.40338659 1213.26705088 304.39160402 C1212.89555918 302.76811037 1212.89555918 302.76811037 1212.51656259 301.11181887 C1208.98137604 285.85614548 1204.88351893 271.01191587 1199.26705088 256.39160402 C1198.96186533 255.58352297 1198.65667978 254.77544191 1198.34224619 253.94287356 C1184.14785053 216.51526758 1163.92373883 179.62224983 1136.26705088 150.39160402 C1135.19862631 149.16758365 1134.13605132 147.93843127 1133.07955088 146.70410402 C1124.34006054 136.70450112 1115.34101617 127.06024377 1105.26705088 118.39160402 C1104.16016362 117.40099926 1103.05480147 116.40868877 1101.95064463 115.41504152 C1092.54718407 107.01786941 1082.62715936 99.56524751 1072.26705088 92.39160402 C1071.61204599 91.93656496 1070.95704111 91.4815259 1070.28218759 91.01269777 C1054.74610963 80.27882592 1038.63975415 71.29800189 1021.48287119 63.41357668 C1019.72415892 62.60242975 1017.97440472 61.77186493 1016.22798838 60.93457277 C1002.47050015 54.40522519 987.98393416 49.25239678 973.26705088 45.39160402 C969.45123007 44.32729941 965.68462165 43.22428951 961.95455088 41.89160402 C957.11719373 40.27104886 952.28344138 39.28738804 947.26705088 38.39160402 C945.4649415 38.05322512 945.4649415 38.05322512 943.62642588 37.70801027 C935.47184455 36.19793937 927.29326417 34.91133538 919.07955088 33.76660402 C918.21426767 33.64357912 917.34898447 33.52055422 916.45748056 33.39380129 C903.92733582 31.69442093 891.42690867 31.24314673 878.79398359 31.26017626 C877.27603821 31.25852235 875.75809326 31.25643414 874.240149 31.25395616 C870.09056951 31.24843467 865.94101083 31.24905355 861.79142885 31.25073375 C857.26842217 31.25146898 852.74542117 31.24643225 848.22241695 31.24215873 C839.26110047 31.23460132 830.29978994 31.23238682 821.33847061 31.23182967 C810.60007687 31.23091378 799.8616886 31.22423951 789.12329723 31.21748285 C763.17088987 31.20144276 737.21848311 31.1955216 711.26607169 31.1907341 C698.98055837 31.18839592 686.69504551 31.184793 674.40953255 31.18103872 C632.32743006 31.16820429 590.24532781 31.15748556 548.1632234 31.15403612 C545.52280577 31.15381449 542.88238815 31.15359271 540.24197052 31.15337077 C537.59529246 31.15315013 534.9486144 31.15292965 532.30193634 31.15270932 C526.99253767 31.15226678 521.683139 31.15181966 516.37374033 31.15136965 C514.3991153 31.15120556 514.3991153 31.15120556 512.38459885 31.15103816 C469.72223269 31.14740942 427.05988716 31.13149574 384.39752696 31.10817929 C339.25755297 31.083554 294.1175887 31.06986201 248.9776078 31.0686682 C244.01719325 31.06849676 239.0567787 31.06828134 234.09636415 31.06803377 C232.87503395 31.067978 231.65370374 31.06792224 230.39536353 31.06786478 C210.78462805 31.06671661 191.17391011 31.05571454 171.56318054 31.04114672 C151.83077212 31.02674261 132.09838603 31.02356674 112.36597379 31.03158669 C100.66136458 31.0360247 88.95682775 31.03225604 77.25222813 31.01634819 C69.41119427 31.0065315 61.57021061 31.00783958 53.7291771 31.01778442 C49.27636856 31.02312873 44.82369807 31.02404385 40.37090149 31.0112757 C4.0484125 30.82729058 4.0484125 30.82729058 -31.73294912 36.39160402 Z " fill="#090D18" transform="translate(348.73294912464917,-0.3916040239855647)"/>
<path d="M0 0 C1.56912781 0.75866074 3.14836844 1.49686086 4.73828125 2.2109375 C6.26361521 2.93103398 7.7883488 3.65240347 9.3125 4.375 C10.12428711 4.75930176 10.93607422 5.14360352 11.77246094 5.53955078 C17.86797486 8.4361793 23.909634 11.4268331 29.921875 14.4921875 C33.23554802 16.11538266 36.60527549 17.55526841 40 19 C41.95483812 19.9494928 43.88238432 20.93916431 45.8125 21.9375 C48.16958899 23.0823718 50.56734792 24.11043085 52.97900391 25.13427734 C63.30691064 29.55838429 73.56164987 34.18291224 83.57421875 39.28125 C96.20449297 45.61798963 108.99688487 51.62033363 121.93530273 57.29907227 C126.86974515 59.47299526 131.69779292 61.79970874 136.50390625 64.24609375 C149.1513435 70.5910092 161.95942365 76.60441915 174.91552734 82.2902832 C181.04996543 84.99270654 187.03483448 87.94215951 193 91 C195.43473916 92.23468781 197.87325758 93.46173867 200.3125 94.6875 C201.42238281 95.24824219 202.53226563 95.80898438 203.67578125 96.38671875 C206.42735989 97.72209123 209.19379824 98.96066259 212.01098633 100.14916992 C216.26623872 101.9694172 220.47328092 103.89966042 224.6875 105.8125 C226.16114014 106.48116089 226.16114014 106.48116089 227.66455078 107.16333008 C233.53688807 109.84083972 239.32979649 112.62743916 245.07421875 115.5703125 C249.35807288 117.6636244 253.73550952 119.53473246 258.13232422 121.37768555 C263.37113161 123.60883109 267.93712218 126.1872901 273 129 C273 186.42 273 243.84 273 303 C265.08 306.96 265.08 306.96 257 311 C254.091875 312.485 254.091875 312.485 251.125 314 C245.37667249 316.88199526 239.50669177 319.45783336 233.62231445 322.0456543 C228.4996617 324.30765368 223.47950136 326.70951729 218.48828125 329.25 C205.50371346 335.76409448 192.33675557 341.89730429 179.06396484 347.79833984 C173.36284906 350.34748956 167.7790538 353.07330135 162.21704102 355.91088867 C156.55303583 358.77712233 150.78918663 361.39753066 145 364 C138.72759333 366.82141317 132.50047393 369.68417715 126.375 372.8125 C119.02425249 376.56158626 111.55138894 380.03681623 104.0625 383.5 C103.45053772 383.78311035 102.83857544 384.0662207 102.20806885 384.35791016 C99.21418206 385.74264596 96.21975139 387.12620099 93.22509766 388.50927734 C82.88444404 393.28899203 72.58805132 398.12839514 62.43652344 403.30004883 C58.35308512 405.37031973 54.22135885 407.22975274 50 409 C41.21301415 412.74282298 32.56901667 416.64877035 24.046875 420.96875 C18.78939402 423.62205816 13.49066992 426.18952973 8.1875 428.75 C6.73718384 429.45817871 6.73718384 429.45817871 5.25756836 430.18066406 C2.52218822 431.49673209 -0.22714942 432.76500497 -3 434 C-3.80493896 434.36287109 -4.60987793 434.72574219 -5.43920898 435.09960938 C-9.59034014 436.75635271 -11.37773066 437.17359719 -15.80859375 435.9375 C-17.0337485 435.32161497 -18.24358821 434.67445768 -19.4375 434 C-20.40236328 433.50258301 -20.40236328 433.50258301 -21.38671875 432.99511719 C-22.67429413 432.32879693 -23.95565194 431.65030184 -25.22998047 430.95898438 C-27.62367924 429.66209489 -30.05997516 428.45697412 -32.5 427.25 C-33.28503906 426.85296875 -34.07007813 426.4559375 -34.87890625 426.046875 C-37.86752881 424.5718274 -40.92881564 423.29313026 -44 422 C-56.6833616 416.41190101 -69.14116632 410.30156874 -81.62890625 404.29296875 C-92.50982722 399.06258638 -103.4313898 393.93814006 -114.41430664 388.92529297 C-120.37215266 386.20582217 -126.32187103 383.47122039 -132.25 380.6875 C-132.86794434 380.3985083 -133.48588867 380.1095166 -134.12255859 379.81176758 C-137.99959495 377.98493783 -141.83309319 376.08174413 -145.66015625 374.15234375 C-152.10615799 370.91926313 -158.63600906 367.88716374 -165.1875 364.875 C-175.58684903 360.07838204 -185.92616315 355.17024314 -196.2355957 350.18261719 C-203.12266668 346.86421541 -210.06809725 343.71945524 -217.07592773 340.66601562 C-222.05427538 338.47691376 -226.83222966 336.05066641 -231.54296875 333.32421875 C-234.01506667 331.99187981 -236.53912511 330.88672455 -239.12768555 329.80151367 C-242.4003237 328.40053948 -245.5997825 326.84471328 -248.8125 325.3125 C-254.85569595 322.44485821 -260.9361047 319.68486121 -267.0625 317 C-273.0938459 314.34823095 -279.04413937 311.57134305 -284.9375 308.625 C-285.94018921 308.12419922 -285.94018921 308.12419922 -286.96313477 307.61328125 C-289.76146653 306.19791584 -292.38683501 304.74211 -295 303 C-295.22204617 300.25254867 -295.28083022 297.73768639 -295.1875 295 C-295.17396484 294.26265625 -295.16042969 293.5253125 -295.14648438 292.765625 C-295.109655 290.84348263 -295.05591101 288.92168199 -295 287 C-295 284.29839667 -295.01093144 281.59686727 -295.02018738 278.89527893 C-295.08068772 260.71777177 -295.12608087 242.54028759 -295.15543652 224.36270237 C-295.17092402 215.0216268 -295.1920576 205.68062674 -295.22631836 196.33959961 C-295.25618204 188.1934102 -295.2755653 180.04727549 -295.28226548 171.90103287 C-295.28618183 167.5877622 -295.29540831 163.27464822 -295.31719017 158.96142769 C-295.33750703 154.90587992 -295.3438436 150.85055385 -295.33932304 146.79496002 C-295.3401503 145.3045907 -295.34614323 143.81421417 -295.35761642 142.32388878 C-295.3724867 140.29321493 -295.36717882 138.26242287 -295.36076355 136.23170471 C-295.36352893 135.09404443 -295.36629431 133.95638414 -295.36914349 132.78424931 C-295 130 -295 130 -293.59761524 128.17550564 C-291.76358876 126.82605152 -289.98672504 125.92113316 -287.89453125 125.01953125 C-287.08387207 124.66415283 -286.27321289 124.30877441 -285.43798828 123.94262695 C-284.57157715 123.56968506 -283.70516602 123.19674316 -282.8125 122.8125 C-276.33018925 119.96590991 -269.92789525 117.03767487 -263.625 113.8125 C-257.55360232 110.71143559 -251.40563844 108.0006292 -245.11328125 105.37109375 C-241.63447295 103.83902134 -238.40503292 102.04470716 -235.12109375 100.140625 C-232.89662386 98.94440915 -230.67081234 98.02704491 -228.3125 97.125 C-221.64681989 94.55969189 -215.35141878 91.24680736 -209 88 C-201.96224319 84.40234073 -194.97357765 80.90734288 -187.5859375 78.07421875 C-183.91961292 76.55119872 -180.41853845 74.73054593 -176.88598633 72.92236328 C-170.75657881 69.81548658 -164.48769436 67.03567973 -158.19189453 64.28442383 C-153.33006303 62.13679744 -148.68306952 59.79331408 -144.0859375 57.12304688 C-141.87863935 55.9346607 -139.65433718 55.01546439 -137.3125 54.125 C-132.67596717 52.34281051 -128.30659817 50.18532154 -123.88720703 47.92285156 C-117.75722448 44.81612075 -111.48811212 42.03586229 -105.19189453 39.28442383 C-100.33006303 37.13679744 -95.68306952 34.79331408 -91.0859375 32.12304688 C-88.8786932 30.93468969 -86.65436423 30.01520472 -84.3125 29.125 C-78.81192295 27.01931035 -73.62744349 24.36882529 -68.39453125 21.68359375 C-64.9758094 19.98800213 -61.51039979 18.49517028 -58 17 C-56.00889263 16.08080871 -54.02915435 15.14012639 -52.05078125 14.19384766 C-50.50327018 13.45486386 -48.95223558 12.72323007 -47.3984375 11.99755859 C-42.80436264 9.84646076 -38.25788204 7.6325893 -33.75627136 5.29299927 C-31.29611511 4.02264176 -28.81937202 2.78684714 -26.3399353 1.55462646 C-25.12329112 0.93991755 -23.91401252 0.31038512 -22.71304321 -0.33441162 C-13.40729644 -5.31706977 -8.92297144 -5.5297528 0 0 Z " fill="#1B1C30" transform="translate(811,526)"/>
<path d="M0 0 C0.18689903 16.73300681 0.32796236 33.46567499 0.41449738 50.19947338 C0.45574569 57.9693561 0.51197735 65.73859024 0.60351562 73.50805664 C0.68326494 80.28014424 0.73486789 87.05176219 0.75270796 93.82430631 C0.76313678 97.41048754 0.78763183 100.99532524 0.84584045 104.58107567 C0.9103075 108.58484795 0.91191884 112.58628665 0.90820312 116.59057617 C0.93696533 117.77884506 0.96572754 118.96711395 0.99536133 120.19139099 C0.9162936 128.04472795 0.9162936 128.04472795 -1.75450897 130.82914448 C-3.7971376 132.13017853 -5.75388986 133.10534277 -8 134 C-9.23266602 134.62708862 -9.23266602 134.62708862 -10.49023438 135.2668457 C-11.18439453 135.56679443 -11.87855469 135.86674316 -12.59375 136.17578125 C-13.3880542 136.52455322 -14.1823584 136.8733252 -15.00073242 137.23266602 C-15.82549072 137.58901123 -16.65024902 137.94535645 -17.5 138.3125 C-23.8050994 141.09120547 -30.04452851 143.94075077 -36.1875 147.0625 C-42.28203745 150.15953567 -48.43231319 153.10650205 -54.62988281 155.99145508 C-59.61342188 158.32111639 -64.53241043 160.75995631 -69.4375 163.25 C-74.55395593 165.84580786 -79.67404935 168.16808839 -85.04296875 170.20703125 C-87.14857066 171.0014099 -87.14857066 171.0014099 -89.5 172.5 C-92.73581582 174.44148949 -96.14470811 175.6679455 -99.65625 177.03125 C-102.086621 177.96814725 -102.086621 177.96814725 -104.5 179.5 C-106.82910498 180.89746299 -108.96791832 181.79235372 -111.5 182.75 C-116.77753528 184.79190353 -121.61397698 187.4306055 -126.53125 190.21875 C-129.21907287 191.59898336 -131.7821701 192.7383695 -134.5859375 193.828125 C-140.92527321 196.30573084 -147.00730302 199.27432523 -153.125 202.25 C-154.32598602 202.83086385 -155.52707748 203.41150973 -156.72827148 203.99194336 C-163.837911 207.43671052 -170.91060933 210.94700654 -177.95483398 214.52319336 C-182.23264095 216.6740754 -186.56961238 218.50819442 -191.04296875 220.20703125 C-193.14857066 221.0014099 -193.14857066 221.0014099 -195.5 222.5 C-197.82910498 223.89746299 -199.96791832 224.79235372 -202.5 225.75 C-206.69494746 227.37304515 -210.56225744 229.32681189 -214.5 231.5 C-219.22005258 234.10493468 -223.90059701 236.26689246 -228.9375 238.171875 C-231.13328679 238.99047077 -231.13328679 238.99047077 -233.5 240.5 C-235.77607085 241.86564251 -237.83773405 242.74846567 -240.30859375 243.6875 C-246.89022588 246.28735758 -253.20761311 249.39473117 -259.5625 252.5 C-272.80558006 258.94969443 -272.80558006 258.94969443 -278.1328125 261.3984375 C-278.80844238 261.70958496 -279.48407227 262.02073242 -280.18017578 262.34130859 C-284.40977976 263.87222777 -287.66879775 262.59784532 -291.609375 260.828125 C-294.77016754 259.27281438 -297.88525401 257.64552618 -301 256 C-310.43264834 251.05304824 -310.43264834 251.05304824 -320.3125 247.125 C-326.17683132 245.12955888 -331.48198856 242.22720485 -336.8996582 239.26025391 C-341.18590954 236.91810041 -345.48766594 234.88724984 -350 233 C-352.82467281 231.71321985 -355.63112984 230.38864251 -358.4375 229.0625 C-359.14970703 228.72798828 -359.86191406 228.39347656 -360.59570312 228.04882812 C-364.16214617 226.3676438 -367.7051385 224.65254363 -371.22265625 222.87109375 C-374.10013547 221.42068868 -377.00166618 220.18342197 -380 219 C-381.90377316 218.05753804 -383.79922021 217.09813218 -385.6875 216.125 C-389.33014053 214.2837625 -392.93402551 212.57132536 -396.75 211.125 C-405.08327867 207.91265548 -412.9624557 203.58666358 -420.8984375 199.51171875 C-424.85813135 197.49439838 -428.78646317 195.65405559 -432.9375 194.0625 C-437.61939924 192.25157671 -441.9083246 189.95532872 -446.26171875 187.46484375 C-449.43418421 185.76773313 -452.68664571 184.40193888 -456 183 C-458.76162436 181.73278922 -461.5054142 180.42863144 -464.25 179.125 C-475.43759006 173.60460858 -475.43759006 173.60460858 -487 169 C-487 168.34 -487 167.68 -487 167 C-487.65226563 166.91492187 -488.30453125 166.82984375 -488.9765625 166.7421875 C-493.05945151 165.73992792 -496.6075133 163.96263774 -500.375 162.125 C-501.84058278 161.4181023 -503.30672309 160.71235924 -504.7734375 160.0078125 C-505.48854492 159.66395508 -506.20365234 159.32009766 -506.94042969 158.96582031 C-508.78765473 158.09957775 -510.66206738 157.29187858 -512.5390625 156.4921875 C-516.44321341 154.80890799 -520.21593543 152.93453925 -524 151 C-535.0031599 145.38353787 -546.13087706 140.12324806 -557.39013672 135.03710938 C-559.01846436 134.29557617 -559.01846436 134.29557617 -560.6796875 133.5390625 C-561.65663574 133.09771973 -562.63358398 132.65637695 -563.64013672 132.20166016 C-566 131 -566 131 -568 129 C-568.24609566 126.75488091 -568.24609566 126.75488091 -568.24050903 123.90011597 C-568.24325836 122.82035492 -568.24600769 121.74059387 -568.24884033 120.62811279 C-568.2380545 118.84355682 -568.2380545 118.84355682 -568.22705078 117.02294922 C-568.22734283 115.77420013 -568.22763489 114.52545105 -568.22793579 113.23886108 C-568.22677902 109.80924301 -568.21673053 106.37986403 -568.20278788 102.9502883 C-568.19030758 99.36816197 -568.18911216 95.78603265 -568.18673706 92.20388794 C-568.18051433 85.41822436 -568.16409283 78.63262501 -568.14403808 71.84698975 C-568.12170371 64.12279466 -568.11069186 56.39859654 -568.10064721 48.6743772 C-568.07972725 32.7828809 -568.04453592 16.89144872 -568 1 C-563.05604762 1.7173561 -559.20003053 3.17832725 -554.8125 5.5 C-553.38636283 6.23361308 -551.95923727 6.96530718 -550.53125 7.6953125 C-549.78875 8.0759082 -549.04625 8.45650391 -548.28125 8.84863281 C-544.49165939 10.76127293 -540.65354901 12.56850664 -536.8125 14.375 C-535.64074219 14.92740356 -535.64074219 14.92740356 -534.4453125 15.4909668 C-532.81916879 16.25749752 -531.19286341 17.02368536 -529.56640625 17.78955078 C-524.97712436 19.95409222 -520.39462016 22.13284881 -515.8125 24.3125 C-514.95180908 24.72097168 -514.09111816 25.12944336 -513.2043457 25.55029297 C-509.34600101 27.38573194 -505.50322916 29.24148313 -501.69140625 31.171875 C-498.88270209 32.58483627 -496.07122544 33.83139114 -493.125 34.9375 C-487.28640461 37.22870637 -481.77927386 40.05007196 -476.20947266 42.92382812 C-469.42950925 46.41193414 -462.74339907 49.83689871 -455.5625 52.4375 C-449.39705011 54.69277693 -443.74265755 57.64195387 -437.99829102 60.79077148 C-434.40288637 62.75800383 -430.83280434 64.544289 -427.04101562 66.11523438 C-421.07403668 68.70187692 -415.26808387 71.67886693 -409.42382812 74.52929688 C-403.72962241 77.28500273 -398.03266707 79.83793236 -392.13745117 82.13061523 C-389.40507075 83.24198093 -386.86883585 84.5944664 -384.3125 86.0625 C-380.90439156 88.01220695 -377.48935094 89.65964101 -373.87586975 91.1934967 C-368.37965296 93.55651629 -362.98316468 96.15646676 -357.5625 98.6875 C-356.55846634 99.15562607 -356.55846634 99.15562607 -355.53414917 99.63320923 C-346.66344716 103.77177119 -337.8389189 107.9802589 -329.12890625 112.44921875 C-324.72865521 114.6301172 -320.22317222 116.49226814 -315.6875 118.375 C-312.78719378 119.60230107 -310.03475309 121.03063581 -307.25 122.5 C-294.56238606 128.83423863 -282.32341904 129.4974261 -268.65625 125.94921875 C-265.82930977 124.93900335 -263.55158341 123.57051574 -261 122 C-259.34246493 121.31094287 -257.67482525 120.64589673 -256 120 C-247.40964275 116.12858443 -238.93888911 112.03011298 -230.54370117 107.75341797 C-225.34265718 105.1175765 -220.0261518 102.8410886 -214.640625 100.60546875 C-208.07048482 97.85781796 -201.79166019 94.87139703 -195.58203125 91.37109375 C-192.30182078 89.62925733 -188.92960711 88.31678897 -185.46484375 86.9921875 C-181.17714657 85.2662365 -177.10510814 83.11669638 -173 81 C-168.1296785 78.48874048 -163.31433771 76.07137619 -158.1875 74.125 C-152.9195461 72.09059394 -148.10212669 69.38360852 -143.1640625 66.66015625 C-139.67577668 64.82988282 -136.15187009 63.41918107 -132.47265625 62.03125 C-128.6582604 60.44041192 -125.11976825 58.38848785 -121.515625 56.375 C-117.59519524 54.23215641 -113.51260504 52.59831933 -109.36328125 50.95703125 C-102.67761329 48.25654576 -96.42584092 45.1238761 -90.1171875 41.63671875 C-86.52262483 39.74934812 -82.8736063 38.26621011 -79.078125 36.83984375 C-76.81983076 35.99389268 -76.81983076 35.99389268 -74.25 34.3125 C-71.52603427 32.72351999 -69.10950289 32.3615701 -66 32 C-66 31.34 -66 30.68 -66 30 C-64.44920623 29.33033905 -62.89768723 28.6623339 -61.34375 28 C-59.54976908 27.23456814 -57.75862028 26.46249538 -55.96875 25.6875 C-54.9065625 25.23375 -53.844375 24.78 -52.75 24.3125 C-51.73421875 23.87550781 -50.7184375 23.43851563 -49.671875 22.98828125 C-47 22 -47 22 -44 22 C-44 21.34 -44 20.68 -44 20 C-43.33097656 19.731875 -42.66195312 19.46375 -41.97265625 19.1875 C-28.8729882 13.8421321 -16.16651699 7.66659047 -3.5625 1.25 C-1 0 -1 0 0 0 Z " fill="#312B4D" transform="translate(1084,934)"/>
<path d="M0 0 C0.66 0.33 1.32 0.66 2 1 C-2.29 5.29 -6.58 9.58 -11 14 C-11 10.30159372 -10.17133056 9.68584567 -7.75 7 C-7.14671875 6.319375 -6.5434375 5.63875 -5.921875 4.9375 C-4.06233388 3.06284066 -2.15205789 1.52358081 0 0 Z " fill="#8787D3" transform="translate(441,586)"/>
</svg>
